<svg width="22" height="29" viewBox="0 0 22 29" fill="none" xmlns="http://www.w3.org/2000/svg">
<path d="M8.0665 29C7.76462 29 7.40238 28.9094 7.00994 28.6528C6.70807 28.4415 0.580071 23.9587 1.00269 11.3556C0.806475 10.9028 0.263105 9.51416 0.00651336 7.86896C-0.0236738 7.64256 0.0517944 7.40106 0.217824 7.25012C0.383854 7.08409 0.625352 7.02372 0.851756 7.069C1.18382 7.14447 1.50078 7.17465 1.83284 7.17465C4.35347 7.17465 6.42129 5.12193 6.42129 2.5862C6.42129 2.04283 6.31564 1.49946 6.11942 0.98628C6.02886 0.759876 6.07414 0.503285 6.22508 0.307068C6.37601 0.110851 6.61751 0.00519549 6.85901 0.0353827C8.15706 0.171225 9.37964 0.699502 10.4815 1.62021C10.6324 1.74096 10.8437 1.74096 10.9947 1.62021C14.8737 -1.59472 18.783 0.925905 19.115 1.1674C23.4016 3.98991 20.9564 10.2387 20.4734 11.3556C20.8961 23.9436 14.753 28.4415 14.4964 28.6227C13.4398 29.2868 12.67 28.8943 12.3531 28.5472C11.7191 27.9585 12.021 26.902 12.172 26.5096C13.1983 21.9966 12.3984 19.3703 11.5531 17.9666C11.3871 17.6798 11.0701 17.5138 10.723 17.5138C10.3758 17.5138 10.0739 17.6798 9.89282 17.9666C9.03249 19.3703 8.23253 21.9966 9.27398 26.5096C9.42492 26.902 9.74188 27.9434 9.09286 28.5472C8.91174 28.7736 8.54949 29 8.0665 29ZM1.57625 8.60855C1.89321 9.93678 2.33093 10.933 2.34602 10.933C2.3913 11.0386 2.42149 11.1443 2.4064 11.265C1.95359 23.1588 7.71934 27.4454 7.77972 27.4906C7.79481 27.5057 8.03631 27.6416 8.03631 27.6416C8.0514 27.6265 8.0514 27.6114 8.0665 27.6114C8.0665 27.4755 8.00612 27.2039 7.94575 27.0227C7.93065 26.9925 7.91556 26.9473 7.91556 26.9171C6.76845 21.9211 7.70425 18.9024 8.70043 17.2723C9.13814 16.5629 9.89282 16.1403 10.7381 16.1403C11.5833 16.1403 12.338 16.5629 12.7757 17.2723C13.7719 18.9175 14.7077 21.9211 13.5606 26.9171C13.5455 26.9473 13.5455 26.9925 13.5304 27.0227C13.4549 27.2039 13.3945 27.4755 13.4096 27.5963C13.4549 27.5963 13.5455 27.5812 13.7266 27.4755C13.7568 27.4605 19.5225 23.1739 19.0697 11.2801C19.0697 11.1745 19.0848 11.0537 19.1301 10.9481C19.1603 10.8877 21.9375 4.75968 18.3452 2.38998C18.3301 2.38998 18.3301 2.37489 18.315 2.37489C18.1792 2.28433 15.085 0.110852 11.9003 2.75223C11.2362 3.31069 10.2551 3.31069 9.59095 2.75223C9.01739 2.26924 8.39856 1.92208 7.76462 1.71077C7.80991 2.01264 7.84009 2.31452 7.84009 2.63148C7.825 5.99735 5.0025 8.75948 1.57625 8.60855Z" fill="url(#paint0_linear_2024_1039)"/>
<defs>
<linearGradient id="paint0_linear_2024_1039" x1="0" y1="14.5" x2="21.6046" y2="14.5" gradientUnits="userSpaceOnUse">
<stop stop-color="#0BD894"/>
<stop offset="1" stop-color="#09AC96"/>
</linearGradient>
</defs>
</svg>
