<svg width="233" height="44" viewBox="0 0 233 44" fill="none" xmlns="http://www.w3.org/2000/svg">
<path d="M6.79059 25.8163C6.9029 25.5917 7.01522 25.3671 7.09945 25.1424C9.65459 19.4144 11.7885 13.518 13.5013 7.4811C11.8728 7.76188 10.2442 8.26729 8.78416 8.99733C8.41914 9.1658 7.99796 9.08157 7.77333 8.74463C7.60486 8.40768 7.6891 7.90227 8.05412 7.7338C11.9009 5.85255 16.59 5.17866 20.7456 6.41412C23.7219 7.31263 26.6982 9.33427 27.4563 12.5352C27.9056 14.4726 27.5125 16.4943 26.5859 18.2071C25.6874 19.8918 24.2835 21.2395 22.7672 22.3627C18.4712 25.5636 13.0802 27.2202 7.71718 27.2764C7.18369 28.4557 6.62212 29.6631 6.03247 30.8424C5.864 31.2074 5.35859 31.2916 5.04973 31.0951C4.68471 30.8985 4.60047 30.4493 4.76894 30.1123C5.24627 29.1576 5.69553 28.203 6.14478 27.2202C4.51624 27.136 2.88769 26.9114 1.28722 26.5183C0.388706 26.2936 0.781804 24.8897 1.68031 25.1144C3.36502 25.5355 5.0778 25.7602 6.79059 25.8163ZM15.0176 7.4811C14.5122 9.25004 13.9787 10.9909 13.4171 12.7318C11.957 17.1682 10.2723 21.5484 8.39106 25.7882C10.0196 25.7321 11.6201 25.5355 13.2205 25.1424C16.5338 24.3562 19.7909 22.9242 22.4584 20.7903C23.778 19.7233 24.9573 18.4317 25.6312 16.8593C26.277 15.3431 26.4174 13.6022 25.7716 12.086C24.7046 9.47467 21.8125 8.07074 19.2013 7.53725C17.8535 7.25647 16.4496 7.20031 15.0456 7.28455C15.0456 7.36878 15.0456 7.42494 15.0176 7.4811ZM33.7114 17.3647C34.3011 17.6455 34.5819 18.2632 34.5257 18.8809C34.4976 19.5548 34.2449 20.2006 34.0765 20.8464C33.908 21.5765 33.7114 22.2784 33.5149 23.0085C33.2903 23.907 31.8863 23.542 32.111 22.6154C32.3075 21.9134 32.476 21.2115 32.6725 20.5376C33.1499 18.6282 33.0656 18.5159 31.3248 19.7514C30.5386 20.3691 29.8085 21.043 29.1347 21.773C28.0115 23.0085 27.0569 24.4124 26.3549 25.9286C26.1864 26.2936 26.018 26.6587 25.8495 27.0237C25.5125 27.7818 24.2209 27.2202 24.5298 26.4621C25.8776 23.9631 26.8884 20.341 27.5623 17.3928C27.7869 16.4662 29.1908 16.8593 28.9662 17.7578C28.7696 18.7125 28.5169 19.6671 28.2361 20.6218C29.2751 19.4987 30.4543 18.5159 31.746 17.7016C32.3075 17.3366 33.0376 17.0558 33.7114 17.3647ZM43.8427 27.5291C42.3826 27.4729 42.2142 25.8444 42.3265 24.6932C42.3826 24.1878 42.4669 23.6543 42.5792 23.1769C42.523 23.2331 42.4388 23.3173 42.3826 23.3735C41.6526 24.0755 40.8664 24.7213 40.0521 25.3109C39.2659 25.8725 38.4517 26.4621 37.5251 26.7991C36.5985 27.136 35.4473 27.0518 34.7172 26.3217C33.9591 25.5355 34.0714 24.4124 34.5488 23.542C35.3349 21.9134 37.16 20.5656 38.8448 19.6952C40.5575 18.7686 42.4949 18.2632 44.4324 18.2351C44.4885 18.2351 44.5447 18.2351 44.6008 18.2632C44.7693 17.9824 44.9097 17.7297 45.0782 17.477C45.5274 16.6347 46.7629 17.3647 46.3136 18.2071C45.724 19.274 45.1343 20.341 44.657 21.4642C44.2639 22.4188 43.927 23.4577 43.8146 24.4685C43.225 28.203 48.7564 22.8681 49.4022 21.773C49.7392 21.2115 50.0761 21.0711 50.4131 21.2957C50.7219 21.5484 50.75 21.9976 50.5535 22.3346C49.5707 23.8789 45.9486 27.6414 43.8427 27.5291ZM38.3393 24.7213C40.3891 23.4016 42.1861 21.7169 43.6181 19.7514C42.1019 19.8918 40.6137 20.3691 39.2659 21.0991C37.9743 21.8292 36.5142 22.8962 35.7842 24.272C35.5034 24.8336 35.5596 25.4513 36.3177 25.5355C37.0477 25.6198 37.7778 25.0863 38.3393 24.7213ZM51.1262 27.2202C52.4178 27.2202 52.3617 29.1857 51.1262 29.1857C49.8346 29.1857 49.8346 27.2202 51.1262 27.2202ZM66.5819 20.0041C67.9015 19.1617 69.3897 18.4878 70.8779 17.9263C71.3271 17.7297 71.7764 17.5893 72.2256 17.4209C72.001 17.3647 71.7764 17.2805 71.5517 17.2243C70.3724 16.8031 69.2493 16.1854 68.8001 14.9219C68.3789 13.7987 68.772 12.4791 69.3616 11.4963C70.569 9.47467 72.703 8.1269 74.8088 7.25647C76.9147 6.35796 79.2452 5.88063 81.5196 5.68408C83.5412 5.51561 85.8717 5.88063 86.7422 7.93035C86.9106 8.29537 86.5737 8.74463 86.2368 8.82886C85.8156 8.94117 85.5067 8.68847 85.3382 8.32345C85.1979 8.01459 84.9171 7.7338 84.6082 7.56533C84.2713 7.36878 83.8782 7.25647 83.4289 7.17223C82.5304 7.00376 81.5477 7.11608 80.6492 7.25647C78.6556 7.53725 76.6339 7.98651 74.8088 8.82886C73.068 9.61506 71.271 10.8505 70.4286 12.6195C70.0636 13.3214 69.8951 14.3042 70.4567 14.95C71.1306 15.7081 72.366 15.9889 73.3207 16.2135C74.0788 16.41 74.8369 16.5224 75.595 16.5785C77.2236 16.2696 78.8521 16.1012 80.4807 16.0731C81.295 16.045 81.4353 17.2805 80.6492 17.5051C79.0487 17.9544 77.364 18.1228 75.7073 18.0386C73.9665 18.3755 72.2818 18.8809 70.6532 19.5548C69.3616 20.0883 68.0419 20.7341 66.9188 21.5484C65.9361 22.2504 65.0656 23.2331 64.8691 24.4685C64.6725 25.5355 65.0937 26.5744 66.0764 27.0798C67.1434 27.6414 68.435 27.5572 69.5862 27.4449C75.567 26.9395 81.0703 24.1316 86.3491 21.4642C87.1914 21.043 87.9215 22.3065 87.0791 22.7277C83.7939 24.3843 80.4807 26.0409 76.999 27.2483C75.4546 27.7818 73.9103 28.2311 72.3099 28.5399C70.8217 28.8207 69.2493 29.0453 67.7331 28.9611C66.3853 28.8488 64.9814 28.4557 64.139 27.3325C63.2686 26.1813 63.1844 24.5809 63.6898 23.2893C64.2233 21.8853 65.3183 20.8184 66.5819 20.0041ZM95.3524 17.3647C95.942 17.6455 96.2228 18.2632 96.1666 18.8809C96.1386 19.5548 95.8859 20.2006 95.7174 20.8464C95.5489 21.5765 95.3524 22.2784 95.1558 23.0085C94.9312 23.907 93.5273 23.542 93.7519 22.6154C93.9485 21.9134 94.1169 21.2115 94.3135 20.5376C94.7908 18.6282 94.7066 18.5159 92.9657 19.7514C92.1795 20.3691 91.4495 21.043 90.7756 21.773C89.6525 23.0085 88.6978 24.4124 87.9958 25.9286C87.8274 26.2936 87.6589 26.6587 87.4904 27.0237C87.1535 27.7818 85.8619 27.2202 86.1707 26.4621C87.5185 23.9631 88.5293 20.341 89.2032 17.3928C89.4278 16.4662 90.8317 16.8593 90.6071 17.7578C90.4106 18.7125 90.1579 19.6671 89.8771 20.6218C90.916 19.4987 92.0953 18.5159 93.3869 17.7016C93.9485 17.3366 94.6785 17.0558 95.3524 17.3647ZM103.35 21.6888C103.687 20.9307 104.95 21.4922 104.585 22.1942C103.883 23.8227 102.648 25.5075 101.16 26.6587C100.205 27.3606 98.1833 28.3715 97.4251 26.7148C97.1163 26.0409 97.1163 24.9178 97.2847 23.7385C97.5094 22.0257 98.0429 20.1445 98.436 19.1056C98.5764 18.7405 98.9133 18.4878 99.3345 18.6002C99.6714 18.7125 99.9803 19.1336 99.8399 19.4987C99.4749 20.4253 98.7729 22.3907 98.5764 24.0474C98.2956 25.9286 98.6044 26.7429 100.289 25.4513C101.468 24.4124 102.676 23.3173 103.35 21.6888ZM99.8399 16.1293C99.6714 16.1012 99.5029 15.9608 99.4187 15.7923C99.3064 15.6238 99.2783 15.4273 99.3345 15.2307C99.5029 14.6973 99.6433 14.1638 99.7837 13.6303C99.8399 13.4618 99.9803 13.3214 100.121 13.2091C100.289 13.0968 100.514 13.0968 100.682 13.1249C100.879 13.181 101.047 13.3214 101.131 13.4618C101.216 13.6303 101.244 13.8549 101.188 14.0234C101.047 14.5569 100.907 15.0904 100.738 15.6238C100.682 15.8204 100.57 15.9608 100.401 16.0731C100.233 16.1573 100.036 16.1854 99.8399 16.1293ZM116.299 21.7449C116.777 20.9587 117.956 21.4922 117.507 22.3065C115.962 25.1705 110.88 28.9049 108.213 25.5917C107.595 24.8055 107.062 23.9631 106.303 23.2893C104.984 26.8833 103.636 30.4773 102.204 34.0714C102.064 34.4364 101.727 34.6891 101.334 34.5768C100.969 34.4645 100.66 34.0433 100.8 33.6783C101.727 31.3478 102.625 29.0173 103.496 26.6867C104.029 25.2828 104.534 23.8789 105.04 22.4469C104.619 22.2504 104.169 22.0819 103.692 21.9415C103.102 21.8011 102.962 20.9026 103.524 20.6218C104.394 20.1725 105.265 19.7233 106.163 19.3021C108.185 13.4618 110.066 7.53725 111.751 1.6127C112.003 0.686116 113.407 1.07921 113.155 1.97772C112.481 4.39247 111.751 6.77914 111.021 9.1658C110.066 12.2825 109.055 15.3711 107.988 18.4598C110.038 17.5332 112.116 16.6627 114.222 15.8765C114.615 15.7362 115.036 16.045 115.12 16.382C115.232 16.8031 114.98 17.1401 114.615 17.2805C112.144 18.2071 109.701 19.2179 107.342 20.3691C107.146 20.8464 106.977 21.3518 106.809 21.8292C107.033 21.9976 107.23 22.1661 107.427 22.3346C107.876 22.7277 108.269 23.205 108.606 23.6824C108.943 24.1597 109.252 24.6089 109.673 25.002C111.638 26.8271 115.289 23.3735 116.299 21.7449ZM124.129 27.5291C122.669 27.4729 122.501 25.8444 122.613 24.6932C122.669 24.1878 122.754 23.6543 122.866 23.1769C122.81 23.2331 122.726 23.3173 122.669 23.3735C121.939 24.0755 121.153 24.7213 120.339 25.3109C119.553 25.8725 118.738 26.4621 117.812 26.7991C116.885 27.136 115.734 27.0518 115.004 26.3217C114.246 25.5355 114.358 24.4124 114.836 23.542C115.622 21.9134 117.447 20.5656 119.132 19.6952C120.844 18.7686 122.782 18.2632 124.719 18.2351C124.775 18.2351 124.831 18.2351 124.888 18.2632C125.056 17.9824 125.196 17.7297 125.365 17.477C125.814 16.6347 127.05 17.3647 126.6 18.2071C126.011 19.274 125.421 20.341 124.944 21.4642C124.551 22.4188 124.214 23.4577 124.101 24.4685C123.512 28.203 129.043 22.8681 129.689 21.773C130.026 21.2115 130.363 21.0711 130.7 21.2957C131.009 21.5484 131.037 21.9976 130.84 22.3346C129.857 23.8789 126.235 27.6414 124.129 27.5291ZM118.626 24.7213C120.676 23.4016 122.473 21.7169 123.905 19.7514C122.389 19.8918 120.9 20.3691 119.553 21.0991C118.261 21.8292 116.801 22.8962 116.071 24.272C115.79 24.8336 115.846 25.4513 116.604 25.5355C117.335 25.6198 118.065 25.0863 118.626 24.7213ZM139.915 32.9202C138.82 32.9202 138.511 31.797 138.624 30.8704C138.792 29.8035 139.129 28.7084 139.41 27.6695C140.224 24.637 141.151 21.6326 142.274 18.6844C141.263 18.7686 140.252 18.8248 139.241 18.9371C138.287 19.0213 138.231 17.5613 139.185 17.477C140.421 17.3647 141.656 17.2524 142.863 17.1962C143.846 14.7253 144.941 12.2825 146.177 9.92392C144.576 10.0362 142.976 10.2328 141.375 10.4574C140.982 10.5136 140.645 10.1205 140.617 9.75545C140.617 9.33427 140.954 9.08157 141.319 8.99733C143.2 8.71655 145.082 8.52 146.963 8.40768C147.468 7.42494 148.002 6.44219 148.563 5.45945C149.041 4.67325 150.332 5.34714 149.855 6.13333C149.434 6.86337 149.041 7.59341 148.62 8.29537C152.129 8.15498 155.639 8.29537 159.093 8.68847C159.486 8.71655 159.739 9.22196 159.654 9.5589C159.542 9.98008 159.177 10.1205 158.756 10.0924C155.162 9.67121 151.484 9.58698 147.861 9.81161C147.525 10.4293 147.216 11.0751 146.907 11.7209C146.008 13.4899 145.222 15.315 144.464 17.1401C147.581 16.9997 150.697 17.0558 153.786 17.2805C154.179 17.3085 154.544 17.5613 154.544 17.9824C154.572 18.3475 154.235 18.7686 153.842 18.7405C150.529 18.5159 147.216 18.4598 143.874 18.6282C143.425 19.7233 143.004 20.8745 142.639 22.0257C142.049 23.7947 141.488 25.5636 141.01 27.3325C140.758 28.2591 140.533 29.1296 140.308 30.0281C140.224 30.3931 140.056 30.8985 140.056 31.1793C140.056 31.2635 140.056 31.3478 140.056 31.432C140.056 31.4601 140.056 31.4601 140.056 31.4882C140.786 31.6566 140.786 32.9202 139.915 32.9202ZM170.199 21.6888C170.648 20.9587 171.406 21.7169 171.041 22.3065C169.693 24.4685 161.719 30.0562 162.73 23.4296C162.758 23.3735 162.758 23.3454 162.786 23.2893C162.73 23.3173 162.702 23.3735 162.674 23.4016C161.859 24.4685 160.905 25.3951 159.81 26.1533C158.687 26.8833 157.03 27.3887 156.216 26.3217C155.401 25.3671 155.794 23.7947 156.131 22.6154C156.525 21.2115 157.114 19.8637 157.9 18.5721C158.434 17.7578 159.585 18.4878 159.08 19.3302C158.322 20.5095 157.788 21.8011 157.423 23.1208C157.311 23.6824 156.833 25.1986 157.563 25.4513C157.928 25.5917 158.434 25.339 158.799 25.1424C159.248 24.8897 159.641 24.5809 160.062 24.2439C161.719 22.7838 162.842 20.8184 163.937 18.9371C164.134 18.6002 164.583 18.5159 164.892 18.6282C165.229 18.7686 165.313 19.1336 165.201 19.4987C164.892 20.678 164.583 21.8853 164.302 23.0646C163.207 27.7818 169.665 22.6154 170.199 21.6888ZM178.041 22.5873C176.356 24.2158 172.481 26.5183 170.403 27.5572C170.038 29.1296 169.589 30.702 169.112 32.2463C168.522 34.2118 167.876 36.1773 166.978 38.0304C166.163 39.7432 165.124 41.5402 163.58 42.6915C162.766 43.3092 161.783 43.6742 160.772 43.5338C159.874 43.3653 159.172 42.8038 158.638 42.0737C157.599 40.6136 157.487 38.592 157.852 36.8511C158.666 33.0325 161.811 30.4212 165.068 28.6242C166.388 27.8941 167.792 27.2483 169.168 26.5744C169.842 23.7104 170.375 20.8184 170.768 17.8982C170.796 17.5051 171.049 17.1682 171.498 17.1682C171.835 17.1682 172.256 17.5051 172.2 17.8982C171.891 20.5376 171.414 23.1489 170.852 25.7321C172.397 24.8897 175.738 22.7838 177.002 21.5484C177.675 20.9026 178.714 21.9415 178.041 22.5873ZM168.325 29.8596C168.438 29.3542 168.578 28.8769 168.718 28.3995C167.623 28.933 166.556 29.4665 165.518 30.0281C162.597 31.6847 159.79 34.0714 159.2 37.5812C158.975 38.9289 159.144 40.8102 160.267 41.7368C161.615 42.8599 163.215 41.2033 164.001 40.1925C165.096 38.7605 165.854 37.1319 166.472 35.4753C167.174 33.6502 167.764 31.7409 168.325 29.8596ZM171.639 15.0061C170.684 15.0061 170.74 12.5914 171.695 12.5914C172.621 12.5914 172.565 15.0061 171.639 15.0061ZM182.786 21.6888C183.123 20.9307 184.387 21.4922 184.022 22.1942C183.32 23.8227 182.084 25.5075 180.596 26.6587C179.642 27.3606 177.62 28.3715 176.862 26.7148C176.553 26.0409 176.553 24.9178 176.721 23.7385C176.946 22.0257 177.48 20.1445 177.873 19.1056C178.013 18.7405 178.35 18.4878 178.771 18.6002C179.108 18.7125 179.417 19.1336 179.277 19.4987C178.912 20.4253 178.21 22.3907 178.013 24.0474C177.732 25.9286 178.041 26.7429 179.726 25.4513C180.905 24.4124 182.113 23.3173 182.786 21.6888ZM179.277 16.1293C179.108 16.1012 178.94 15.9608 178.855 15.7923C178.743 15.6238 178.715 15.4273 178.771 15.2307C178.94 14.6973 179.08 14.1638 179.22 13.6303C179.277 13.4618 179.417 13.3214 179.557 13.2091C179.726 13.0968 179.95 13.0968 180.119 13.1249C180.316 13.181 180.484 13.3214 180.568 13.4618C180.652 13.6303 180.681 13.8549 180.624 14.0234C180.484 14.5569 180.344 15.0904 180.175 15.6238C180.119 15.8204 180.007 15.9608 179.838 16.0731C179.67 16.1573 179.473 16.1854 179.277 16.1293ZM195.427 20.8184C196.55 17.7016 196.326 16.9155 195.511 16.9435C193.349 17.0278 190.878 22.8962 189.727 25.2547C189.418 25.8725 188.492 25.3109 188.492 24.7493C188.492 24.1878 187.902 19.7514 187.256 19.8075C186.835 19.8356 186.498 20.341 186.246 20.678C184.87 22.5311 183.747 24.6089 182.904 26.771C182.736 27.136 182.399 27.3887 182.006 27.2764C181.641 27.1641 181.36 26.7429 181.5 26.3779C182.286 24.0193 182.82 21.5765 183.073 19.1056C183.129 18.7125 183.382 18.3755 183.803 18.3755C184.168 18.3755 184.589 18.7125 184.533 19.1056C184.477 19.7233 184.392 20.341 184.308 20.9307C184.477 20.678 184.645 20.3972 184.842 20.1445C185.459 19.274 186.217 18.3194 187.397 18.3475C189.25 18.4317 189.39 20.9026 189.587 22.4188C190.991 19.7233 193.686 15.0342 196.129 15.0904C197.673 15.1184 198.516 16.747 196.663 21.2676C195.708 23.57 195.764 26.434 199.134 24.5247C200.622 23.6824 202.138 22.2504 202.391 21.6888C202.728 20.9307 203.963 21.3518 203.458 22.3065C203.008 23.1769 201.436 24.6089 199.751 25.5917C195.118 28.3434 193.574 26.0129 195.427 20.8184ZM213.738 21.408C214.636 21.1553 215.029 22.5592 214.131 22.8119C213.204 23.0646 211.014 23.3173 210.06 23.4577C209.779 23.8508 209.498 24.1878 209.217 24.5247C208.291 25.5917 207.196 26.5464 205.96 27.2483C204.949 27.866 203.461 28.3153 202.422 27.5291C201.187 26.5744 201.636 24.6089 201.917 23.3173C202.254 21.9696 202.843 20.6499 203.602 19.4987C203.938 18.7405 204.556 18.1228 205.23 17.6736C206.466 16.8593 208.094 16.5224 209.47 17.1401C210.902 17.7578 211.632 19.1617 211.351 20.678C211.295 21.0711 211.155 21.4361 211.014 21.8011C211.492 21.6888 213.261 21.5203 213.738 21.408ZM205.455 19.3302C205.342 19.4425 205.258 19.5829 205.146 19.6952C205.146 19.7795 205.118 19.8637 205.062 19.9479C205.005 20.0041 204.977 20.0602 204.921 20.1445C204.781 20.6218 204.837 21.1272 205.314 21.5484C206.157 22.3627 207.533 22.2504 208.599 22.1661C208.796 22.138 209.021 22.11 209.217 22.0819C209.582 21.5203 209.863 20.9026 209.947 20.2568C210.088 19.246 209.33 18.4598 208.347 18.2913C207.336 18.1509 206.185 18.6282 205.455 19.3302ZM206.016 25.4794C206.774 24.974 207.448 24.3282 208.038 23.6543C207.813 23.6543 207.617 23.6543 207.392 23.6543C206.072 23.6543 204.612 23.205 203.854 22.11C203.658 22.5873 203.489 23.0646 203.377 23.5981C203.208 24.2158 203.096 24.8897 203.068 25.5355C203.068 26.0409 203.152 26.406 203.602 26.4621C204.416 26.6025 205.342 25.9567 206.016 25.4794ZM221.106 22.5031C220.208 23.7947 218.551 25.8444 217.175 26.9395C216.417 27.5572 215.603 28.0345 214.901 27.8941C214.367 27.8099 213.918 27.4168 213.665 26.9395C212.626 25.0863 213.581 21.1272 214.143 18.9933C214.845 16.1573 215.827 13.4056 216.866 10.7101C215.21 10.8786 213.525 11.0751 211.868 11.2717C211.475 11.2998 211.138 10.8786 211.138 10.5416C211.138 10.1205 211.475 9.83968 211.868 9.81161L217.456 9.1658C218.41 6.80721 219.421 4.44863 220.516 2.14619C220.685 1.78118 221.218 1.69694 221.527 1.89349C221.892 2.09004 221.948 2.51121 221.78 2.87623C220.825 4.89788 219.927 6.91953 219.112 8.99733L226.441 8.18306C226.834 8.1269 227.171 8.54808 227.171 8.9131C227.171 9.33427 226.834 9.58698 226.441 9.64314L218.495 10.5136C218.382 10.8505 218.242 11.2155 218.102 11.5525C217.119 14.1357 216.192 16.747 215.518 19.4425C215.181 20.7622 214.929 22.0819 214.788 23.4296C214.367 26.434 215.322 26.4621 216.501 25.5355C217.793 24.5247 219 23.0085 219.983 21.5765C220.208 21.2676 220.713 21.2676 220.994 21.4922C221.331 21.7449 221.331 22.1942 221.106 22.5031ZM231.232 21.408C232.131 21.1553 232.524 22.5592 231.625 22.8119C230.699 23.0646 228.508 23.3173 227.554 23.4577C227.273 23.8508 226.992 24.1878 226.711 24.5247C225.785 25.5917 224.69 26.5464 223.454 27.2483C222.443 27.866 220.955 28.3153 219.916 27.5291C218.681 26.5744 219.13 24.6089 219.411 23.3173C219.748 21.9696 220.338 20.6499 221.096 19.4987C221.433 18.7405 222.05 18.1228 222.724 17.6736C223.96 16.8593 225.588 16.5224 226.964 17.1401C228.396 17.7578 229.126 19.1617 228.845 20.678C228.789 21.0711 228.649 21.4361 228.508 21.8011C228.986 21.6888 230.755 21.5203 231.232 21.408ZM222.949 19.3302C222.837 19.4425 222.752 19.5829 222.64 19.6952C222.64 19.7795 222.612 19.8637 222.556 19.9479C222.5 20.0041 222.472 20.0602 222.415 20.1445C222.275 20.6218 222.331 21.1272 222.809 21.5484C223.651 22.3627 225.027 22.2504 226.094 22.1661C226.29 22.138 226.515 22.11 226.711 22.0819C227.076 21.5203 227.357 20.9026 227.441 20.2568C227.582 19.246 226.824 18.4598 225.841 18.2913C224.83 18.1509 223.679 18.6282 222.949 19.3302ZM223.51 25.4794C224.269 24.974 224.942 24.3282 225.532 23.6543C225.307 23.6543 225.111 23.6543 224.886 23.6543C223.567 23.6543 222.107 23.205 221.348 22.11C221.152 22.5873 220.983 23.0646 220.871 23.5981C220.703 24.2158 220.59 24.8897 220.562 25.5355C220.562 26.0409 220.646 26.406 221.096 26.4621C221.91 26.6025 222.837 25.9567 223.51 25.4794Z" fill="white"/>
</svg>
