<svg width="265" height="50" viewBox="0 0 265 50" fill="none" xmlns="http://www.w3.org/2000/svg">
<path d="M7.32 29.232C7.448 28.976 7.576 28.72 7.672 28.464C10.584 21.936 13.016 15.216 14.968 8.336C13.112 8.656 11.256 9.232 9.592 10.064C9.176 10.256 8.696 10.16 8.44 9.776C8.248 9.392 8.344 8.816 8.76 8.624C13.144 6.48 18.488 5.712 23.224 7.12C26.616 8.144 30.008 10.448 30.872 14.096C31.384 16.304 30.936 18.608 29.88 20.56C28.856 22.48 27.256 24.016 25.528 25.296C20.632 28.944 14.488 30.832 8.376 30.896C7.768 32.24 7.128 33.616 6.456 34.96C6.264 35.376 5.688 35.472 5.336 35.248C4.92 35.024 4.824 34.512 5.016 34.128C5.56 33.04 6.072 31.952 6.584 30.832C4.728 30.736 2.872 30.48 1.048 30.032C0.0239999 29.776 0.472 28.176 1.496 28.432C3.416 28.912 5.368 29.168 7.32 29.232ZM16.696 8.336C16.12 10.352 15.512 12.336 14.872 14.32C13.208 19.376 11.288 24.368 9.144 29.2C11 29.136 12.824 28.912 14.648 28.464C18.424 27.568 22.136 25.936 25.176 23.504C26.68 22.288 28.024 20.816 28.792 19.024C29.528 17.296 29.688 15.312 28.952 13.584C27.736 10.608 24.44 9.008 21.464 8.4C19.928 8.08 18.328 8.016 16.728 8.112C16.728 8.208 16.728 8.272 16.696 8.336ZM38.0008 19.6C38.6728 19.92 38.9928 20.624 38.9288 21.328C38.8968 22.096 38.6088 22.832 38.4167 23.568C38.2248 24.4 38.0008 25.2 37.7768 26.032C37.5208 27.056 35.9208 26.64 36.1768 25.584C36.4008 24.784 36.5928 23.984 36.8168 23.216C37.3608 21.04 37.2648 20.912 35.2808 22.32C34.3848 23.024 33.5528 23.792 32.7848 24.624C31.5048 26.032 30.4168 27.632 29.6167 29.36C29.4247 29.776 29.2327 30.192 29.0407 30.608C28.6567 31.472 27.1847 30.832 27.5367 29.968C29.0727 27.12 30.2248 22.992 30.9928 19.632C31.2488 18.576 32.8488 19.024 32.5928 20.048C32.3688 21.136 32.0807 22.224 31.7608 23.312C32.9448 22.032 34.2888 20.912 35.7608 19.984C36.4008 19.568 37.2328 19.248 38.0008 19.6ZM49.547 31.184C47.883 31.12 47.691 29.264 47.819 27.952C47.883 27.376 47.979 26.768 48.107 26.224C48.043 26.288 47.947 26.384 47.883 26.448C47.051 27.248 46.155 27.984 45.227 28.656C44.331 29.296 43.403 29.968 42.347 30.352C41.291 30.736 39.979 30.64 39.147 29.808C38.283 28.912 38.411 27.632 38.955 26.64C39.851 24.784 41.931 23.248 43.851 22.256C45.803 21.2 48.011 20.624 50.219 20.592C50.283 20.592 50.347 20.592 50.411 20.624C50.603 20.304 50.763 20.016 50.955 19.728C51.467 18.768 52.875 19.6 52.363 20.56C51.691 21.776 51.019 22.992 50.475 24.272C50.027 25.36 49.643 26.544 49.515 27.696C48.843 31.952 55.147 25.872 55.883 24.624C56.267 23.984 56.651 23.824 57.035 24.08C57.387 24.368 57.419 24.88 57.195 25.264C56.075 27.024 51.947 31.312 49.547 31.184ZM43.275 27.984C45.611 26.48 47.659 24.56 49.291 22.32C47.563 22.48 45.867 23.024 44.331 23.856C42.859 24.688 41.195 25.904 40.363 27.472C40.043 28.112 40.107 28.816 40.971 28.912C41.803 29.008 42.635 28.4 43.275 27.984ZM57.8478 30.832C59.3198 30.832 59.2558 33.072 57.8478 33.072C56.3758 33.072 56.3758 30.832 57.8478 30.832ZM75.462 22.608C76.966 21.648 78.662 20.88 80.358 20.24C80.87 20.016 81.382 19.856 81.894 19.664C81.638 19.6 81.382 19.504 81.126 19.44C79.782 18.96 78.502 18.256 77.99 16.816C77.51 15.536 77.958 14.032 78.63 12.912C80.006 10.608 82.438 9.072 84.838 8.08C87.238 7.056 89.894 6.512 92.486 6.288C94.79 6.096 97.446 6.512 98.438 8.848C98.63 9.264 98.246 9.776 97.862 9.872C97.382 10 97.03 9.712 96.838 9.296C96.678 8.944 96.358 8.624 96.006 8.432C95.622 8.208 95.174 8.08 94.662 7.984C93.638 7.792 92.518 7.92 91.494 8.08C89.222 8.4 86.918 8.912 84.838 9.872C82.854 10.768 80.806 12.176 79.846 14.192C79.43 14.992 79.238 16.112 79.878 16.848C80.646 17.712 82.054 18.032 83.142 18.288C84.006 18.512 84.87 18.64 85.734 18.704C87.59 18.352 89.446 18.16 91.302 18.128C92.23 18.096 92.39 19.504 91.494 19.76C89.67 20.272 87.75 20.464 85.862 20.368C83.878 20.752 81.958 21.328 80.102 22.096C78.63 22.704 77.126 23.44 75.846 24.368C74.726 25.168 73.734 26.288 73.51 27.696C73.286 28.912 73.766 30.096 74.886 30.672C76.102 31.312 77.574 31.216 78.886 31.088C85.702 30.512 91.974 27.312 97.99 24.272C98.95 23.792 99.782 25.232 98.822 25.712C95.078 27.6 91.302 29.488 87.334 30.864C85.574 31.472 83.814 31.984 81.99 32.336C80.294 32.656 78.502 32.912 76.774 32.816C75.238 32.688 73.638 32.24 72.678 30.96C71.686 29.648 71.59 27.824 72.166 26.352C72.774 24.752 74.022 23.536 75.462 22.608ZM108.251 19.6C108.923 19.92 109.243 20.624 109.179 21.328C109.147 22.096 108.859 22.832 108.667 23.568C108.475 24.4 108.251 25.2 108.027 26.032C107.771 27.056 106.171 26.64 106.427 25.584C106.651 24.784 106.843 23.984 107.067 23.216C107.611 21.04 107.515 20.912 105.531 22.32C104.635 23.024 103.803 23.792 103.035 24.624C101.755 26.032 100.667 27.632 99.8667 29.36C99.6747 29.776 99.4827 30.192 99.2907 30.608C98.9067 31.472 97.4347 30.832 97.7867 29.968C99.3227 27.12 100.475 22.992 101.243 19.632C101.499 18.576 103.099 19.024 102.843 20.048C102.619 21.136 102.331 22.224 102.011 23.312C103.195 22.032 104.539 20.912 106.011 19.984C106.651 19.568 107.483 19.248 108.251 19.6ZM117.365 24.528C117.749 23.664 119.189 24.304 118.773 25.104C117.973 26.96 116.565 28.88 114.869 30.192C113.781 30.992 111.477 32.144 110.613 30.256C110.261 29.488 110.261 28.208 110.453 26.864C110.709 24.912 111.317 22.768 111.765 21.584C111.925 21.168 112.309 20.88 112.789 21.008C113.173 21.136 113.525 21.616 113.365 22.032C112.949 23.088 112.149 25.328 111.925 27.216C111.605 29.36 111.957 30.288 113.877 28.816C115.221 27.632 116.597 26.384 117.365 24.528ZM113.365 18.192C113.173 18.16 112.981 18 112.885 17.808C112.757 17.616 112.725 17.392 112.789 17.168C112.981 16.56 113.141 15.952 113.301 15.344C113.365 15.152 113.525 14.992 113.685 14.864C113.877 14.736 114.133 14.736 114.325 14.768C114.549 14.832 114.741 14.992 114.837 15.152C114.933 15.344 114.965 15.6 114.901 15.792C114.741 16.4 114.581 17.008 114.389 17.616C114.325 17.84 114.197 18 114.005 18.128C113.813 18.224 113.589 18.256 113.365 18.192ZM132.123 24.592C132.667 23.696 134.011 24.304 133.499 25.232C131.739 28.496 125.947 32.752 122.907 28.976C122.203 28.08 121.595 27.12 120.731 26.352C119.227 30.448 117.691 34.544 116.059 38.64C115.899 39.056 115.515 39.344 115.067 39.216C114.651 39.088 114.299 38.608 114.459 38.192C115.515 35.536 116.539 32.88 117.531 30.224C118.139 28.624 118.715 27.024 119.291 25.392C118.811 25.168 118.299 24.976 117.755 24.816C117.083 24.656 116.923 23.632 117.563 23.312C118.555 22.8 119.547 22.288 120.571 21.808C122.875 15.152 125.019 8.4 126.939 1.648C127.227 0.591999 128.827 1.04 128.539 2.064C127.771 4.816 126.939 7.536 126.107 10.256C125.019 13.808 123.867 17.328 122.651 20.848C124.987 19.792 127.355 18.8 129.755 17.904C130.203 17.744 130.683 18.096 130.779 18.48C130.907 18.96 130.619 19.344 130.203 19.504C127.387 20.56 124.603 21.712 121.915 23.024C121.691 23.568 121.499 24.144 121.307 24.688C121.563 24.88 121.787 25.072 122.011 25.264C122.523 25.712 122.971 26.256 123.355 26.8C123.739 27.344 124.091 27.856 124.571 28.304C126.811 30.384 130.971 26.448 132.123 24.592ZM141.047 31.184C139.383 31.12 139.191 29.264 139.319 27.952C139.383 27.376 139.479 26.768 139.607 26.224C139.543 26.288 139.447 26.384 139.383 26.448C138.551 27.248 137.655 27.984 136.727 28.656C135.831 29.296 134.903 29.968 133.847 30.352C132.791 30.736 131.479 30.64 130.647 29.808C129.783 28.912 129.911 27.632 130.455 26.64C131.351 24.784 133.431 23.248 135.351 22.256C137.303 21.2 139.511 20.624 141.719 20.592C141.783 20.592 141.847 20.592 141.911 20.624C142.103 20.304 142.263 20.016 142.455 19.728C142.967 18.768 144.375 19.6 143.863 20.56C143.191 21.776 142.519 22.992 141.975 24.272C141.527 25.36 141.143 26.544 141.015 27.696C140.343 31.952 146.647 25.872 147.383 24.624C147.767 23.984 148.151 23.824 148.535 24.08C148.887 24.368 148.919 24.88 148.695 25.264C147.575 27.024 143.447 31.312 141.047 31.184ZM134.775 27.984C137.111 26.48 139.159 24.56 140.791 22.32C139.063 22.48 137.367 23.024 135.831 23.856C134.359 24.688 132.695 25.904 131.863 27.472C131.543 28.112 131.607 28.816 132.471 28.912C133.303 29.008 134.135 28.4 134.775 27.984ZM159.038 37.328C157.79 37.328 157.438 36.048 157.566 34.992C157.758 33.776 158.142 32.528 158.462 31.344C159.39 27.888 160.446 24.464 161.726 21.104C160.574 21.2 159.422 21.264 158.27 21.392C157.181 21.488 157.117 19.824 158.206 19.728C159.614 19.6 161.022 19.472 162.398 19.408C163.518 16.592 164.766 13.808 166.174 11.12C164.35 11.248 162.526 11.472 160.702 11.728C160.254 11.792 159.87 11.344 159.838 10.928C159.838 10.448 160.222 10.16 160.638 10.064C162.782 9.744 164.926 9.52 167.07 9.392C167.646 8.272 168.254 7.152 168.894 6.032C169.438 5.136 170.91 5.904 170.366 6.8C169.886 7.632 169.438 8.464 168.958 9.264C172.958 9.104 176.958 9.264 180.894 9.712C181.342 9.744 181.63 10.32 181.534 10.704C181.406 11.184 180.99 11.344 180.51 11.312C176.414 10.832 172.222 10.736 168.094 10.992C167.71 11.696 167.358 12.432 167.006 13.168C165.982 15.184 165.086 17.264 164.222 19.344C167.774 19.184 171.326 19.248 174.846 19.504C175.294 19.536 175.71 19.824 175.71 20.304C175.742 20.72 175.358 21.2 174.91 21.168C171.134 20.912 167.358 20.848 163.55 21.04C163.038 22.288 162.558 23.6 162.141 24.912C161.47 26.928 160.83 28.944 160.286 30.96C159.998 32.016 159.742 33.008 159.486 34.032C159.39 34.448 159.198 35.024 159.198 35.344C159.198 35.44 159.198 35.536 159.198 35.632C159.198 35.664 159.198 35.664 159.198 35.696C160.03 35.888 160.03 37.328 159.038 37.328ZM193.551 24.528C194.062 23.696 194.927 24.56 194.51 25.232C192.975 27.696 183.887 34.064 185.039 26.512C185.071 26.448 185.071 26.416 185.103 26.352C185.039 26.384 185.007 26.448 184.975 26.48C184.047 27.696 182.959 28.752 181.711 29.616C180.431 30.448 178.543 31.024 177.614 29.808C176.686 28.72 177.134 26.928 177.518 25.584C177.966 23.984 178.639 22.448 179.535 20.976C180.143 20.048 181.455 20.88 180.879 21.84C180.015 23.184 179.407 24.656 178.991 26.16C178.863 26.8 178.319 28.528 179.151 28.816C179.567 28.976 180.143 28.688 180.559 28.464C181.071 28.176 181.519 27.824 181.999 27.44C183.887 25.776 185.167 23.536 186.415 21.392C186.639 21.008 187.151 20.912 187.503 21.04C187.887 21.2 187.983 21.616 187.855 22.032C187.503 23.376 187.151 24.752 186.831 26.096C185.583 31.472 192.943 25.584 193.551 24.528ZM202.488 25.552C200.568 27.408 196.152 30.032 193.784 31.216C193.367 33.008 192.855 34.8 192.311 36.56C191.639 38.8 190.903 41.04 189.879 43.152C188.951 45.104 187.767 47.152 186.007 48.464C185.079 49.168 183.959 49.584 182.807 49.424C181.783 49.232 180.983 48.592 180.375 47.76C179.191 46.096 179.063 43.792 179.479 41.808C180.407 37.456 183.991 34.48 187.703 32.432C189.207 31.6 190.807 30.864 192.375 30.096C193.143 26.832 193.752 23.536 194.2 20.208C194.232 19.76 194.52 19.376 195.032 19.376C195.416 19.376 195.896 19.76 195.832 20.208C195.48 23.216 194.936 26.192 194.296 29.136C196.056 28.176 199.864 25.776 201.304 24.368C202.072 23.632 203.256 24.816 202.488 25.552ZM191.415 33.84C191.543 33.264 191.703 32.72 191.863 32.176C190.615 32.784 189.399 33.392 188.215 34.032C184.887 35.92 181.687 38.64 181.015 42.64C180.759 44.176 180.951 46.32 182.231 47.376C183.767 48.656 185.591 46.768 186.487 45.616C187.735 43.984 188.599 42.128 189.303 40.24C190.103 38.16 190.775 35.984 191.415 33.84ZM195.192 16.912C194.104 16.912 194.168 14.16 195.256 14.16C196.312 14.16 196.248 16.912 195.192 16.912ZM207.896 24.528C208.28 23.664 209.72 24.304 209.304 25.104C208.504 26.96 207.096 28.88 205.4 30.192C204.312 30.992 202.008 32.144 201.144 30.256C200.792 29.488 200.792 28.208 200.984 26.864C201.24 24.912 201.848 22.768 202.296 21.584C202.456 21.168 202.84 20.88 203.32 21.008C203.704 21.136 204.056 21.616 203.896 22.032C203.48 23.088 202.68 25.328 202.456 27.216C202.136 29.36 202.488 30.288 204.408 28.816C205.752 27.632 207.128 26.384 207.896 24.528ZM203.896 18.192C203.704 18.16 203.512 18 203.416 17.808C203.288 17.616 203.256 17.392 203.32 17.168C203.512 16.56 203.672 15.952 203.832 15.344C203.896 15.152 204.056 14.992 204.216 14.864C204.408 14.736 204.664 14.736 204.856 14.768C205.08 14.832 205.272 14.992 205.368 15.152C205.464 15.344 205.496 15.6 205.432 15.792C205.272 16.4 205.112 17.008 204.92 17.616C204.856 17.84 204.728 18 204.536 18.128C204.344 18.224 204.12 18.256 203.896 18.192ZM222.303 23.536C223.583 19.984 223.327 19.088 222.399 19.12C219.935 19.216 217.119 25.904 215.807 28.592C215.455 29.296 214.399 28.656 214.399 28.016C214.399 27.376 213.727 22.32 212.991 22.384C212.511 22.416 212.127 22.992 211.839 23.376C210.271 25.488 208.991 27.856 208.03 30.32C207.838 30.736 207.454 31.024 207.007 30.896C206.59 30.768 206.27 30.288 206.43 29.872C207.326 27.184 207.934 24.4 208.223 21.584C208.287 21.136 208.575 20.752 209.055 20.752C209.471 20.752 209.951 21.136 209.887 21.584C209.823 22.288 209.727 22.992 209.631 23.664C209.823 23.376 210.015 23.056 210.239 22.768C210.943 21.776 211.807 20.688 213.151 20.72C215.263 20.816 215.423 23.632 215.647 25.36C217.247 22.288 220.319 16.944 223.103 17.008C224.863 17.04 225.823 18.896 223.711 24.048C222.623 26.672 222.687 29.936 226.527 27.76C228.223 26.8 229.951 25.168 230.239 24.528C230.623 23.664 232.031 24.144 231.455 25.232C230.943 26.224 229.151 27.856 227.231 28.976C221.951 32.112 220.191 29.456 222.303 23.536ZM243.171 24.208C244.195 23.92 244.643 25.52 243.619 25.808C242.563 26.096 240.067 26.384 238.979 26.544C238.659 26.992 238.339 27.376 238.019 27.76C236.963 28.976 235.715 30.064 234.307 30.864C233.155 31.568 231.459 32.08 230.274 31.184C228.866 30.096 229.378 27.856 229.698 26.384C230.082 24.848 230.755 23.344 231.618 22.032C232.003 21.168 232.707 20.464 233.475 19.952C234.883 19.024 236.739 18.64 238.307 19.344C239.939 20.048 240.771 21.648 240.451 23.376C240.387 23.824 240.227 24.24 240.067 24.656C240.611 24.528 242.627 24.336 243.171 24.208ZM233.731 21.84C233.603 21.968 233.507 22.128 233.379 22.256C233.379 22.352 233.347 22.448 233.283 22.544C233.219 22.608 233.187 22.672 233.123 22.768C232.963 23.312 233.027 23.888 233.571 24.368C234.531 25.296 236.099 25.168 237.315 25.072C237.539 25.04 237.795 25.008 238.019 24.976C238.435 24.336 238.755 23.632 238.851 22.896C239.01 21.744 238.147 20.848 237.027 20.656C235.875 20.496 234.562 21.04 233.731 21.84ZM234.371 28.848C235.235 28.272 236.003 27.536 236.675 26.768C236.419 26.768 236.195 26.768 235.939 26.768C234.435 26.768 232.771 26.256 231.907 25.008C231.683 25.552 231.491 26.096 231.363 26.704C231.171 27.408 231.043 28.176 231.011 28.912C231.011 29.488 231.107 29.904 231.618 29.968C232.547 30.128 233.603 29.392 234.371 28.848ZM251.568 25.456C250.544 26.928 248.656 29.264 247.088 30.512C246.224 31.216 245.296 31.76 244.496 31.6C243.888 31.504 243.376 31.056 243.088 30.512C241.904 28.4 242.992 23.888 243.632 21.456C244.432 18.224 245.552 15.088 246.736 12.016C244.848 12.208 242.928 12.432 241.04 12.656C240.592 12.688 240.208 12.208 240.208 11.824C240.208 11.344 240.592 11.024 241.04 10.992L247.408 10.256C248.496 7.568 249.648 4.88 250.896 2.256C251.088 1.84 251.696 1.744 252.048 1.968C252.464 2.192 252.528 2.672 252.336 3.088C251.248 5.392 250.224 7.696 249.296 10.064L257.648 9.136C258.096 9.072 258.48 9.552 258.48 9.968C258.48 10.448 258.096 10.736 257.648 10.8L248.592 11.792C248.464 12.176 248.304 12.592 248.144 12.976C247.024 15.92 245.968 18.896 245.2 21.968C244.816 23.472 244.528 24.976 244.368 26.512C243.888 29.936 244.976 29.968 246.32 28.912C247.792 27.76 249.168 26.032 250.288 24.4C250.544 24.048 251.12 24.048 251.44 24.304C251.824 24.592 251.824 25.104 251.568 25.456ZM263.108 24.208C264.132 23.92 264.58 25.52 263.556 25.808C262.5 26.096 260.004 26.384 258.916 26.544C258.596 26.992 258.276 27.376 257.956 27.76C256.9 28.976 255.652 30.064 254.244 30.864C253.092 31.568 251.396 32.08 250.212 31.184C248.804 30.096 249.316 27.856 249.636 26.384C250.02 24.848 250.692 23.344 251.556 22.032C251.94 21.168 252.644 20.464 253.412 19.952C254.82 19.024 256.676 18.64 258.244 19.344C259.876 20.048 260.708 21.648 260.388 23.376C260.324 23.824 260.164 24.24 260.004 24.656C260.548 24.528 262.564 24.336 263.108 24.208ZM253.668 21.84C253.54 21.968 253.444 22.128 253.316 22.256C253.316 22.352 253.284 22.448 253.22 22.544C253.156 22.608 253.124 22.672 253.06 22.768C252.9 23.312 252.964 23.888 253.508 24.368C254.468 25.296 256.036 25.168 257.252 25.072C257.476 25.04 257.732 25.008 257.956 24.976C258.372 24.336 258.692 23.632 258.788 22.896C258.948 21.744 258.084 20.848 256.964 20.656C255.812 20.496 254.5 21.04 253.668 21.84ZM254.308 28.848C255.172 28.272 255.94 27.536 256.612 26.768C256.356 26.768 256.132 26.768 255.876 26.768C254.372 26.768 252.708 26.256 251.844 25.008C251.62 25.552 251.428 26.096 251.3 26.704C251.108 27.408 250.98 28.176 250.948 28.912C250.948 29.488 251.044 29.904 251.556 29.968C252.484 30.128 253.54 29.392 254.308 28.848Z" fill="url(#paint0_linear_2015_857)"/>
<defs>
<linearGradient id="paint0_linear_2015_857" x1="3" y1="25.5" x2="264" y2="25.5" gradientUnits="userSpaceOnUse">
<stop stop-color="#0BD894"/>
<stop offset="1" stop-color="#09AC96"/>
</linearGradient>
</defs>
</svg>
