<svg width="320" height="77" viewBox="0 0 320 77" fill="none" xmlns="http://www.w3.org/2000/svg">
<path d="M105.201 44.1059C106.904 43.0193 108.823 42.15 110.743 41.4256C111.323 41.1721 111.902 40.991 112.482 40.7737C112.192 40.7012 111.902 40.5926 111.612 40.5201C110.091 39.9768 108.642 39.18 108.063 37.5501C107.52 36.1013 108.027 34.399 108.787 33.1313C110.345 30.5235 113.097 28.785 115.814 27.6622C118.53 26.5032 121.536 25.8874 124.47 25.6339C127.078 25.4166 130.084 25.8874 131.207 28.5315C131.424 29.0023 130.99 29.5818 130.555 29.6905C130.012 29.8354 129.613 29.5094 129.396 29.0385C129.215 28.6401 128.853 28.2779 128.454 28.0606C128.02 27.8071 127.513 27.6622 126.933 27.5535C125.774 27.3362 124.506 27.4811 123.347 27.6622C120.776 28.0244 118.168 28.6039 115.814 29.6905C113.568 30.7046 111.25 32.2983 110.164 34.5801C109.693 35.4856 109.475 36.7533 110.2 37.5863C111.069 38.5643 112.663 38.9265 113.894 39.2162C114.872 39.4698 115.85 39.6146 116.828 39.6871C118.929 39.2887 121.029 39.0713 123.13 39.0351C124.18 38.9989 124.362 40.5926 123.347 40.8823C121.283 41.4618 119.11 41.6791 116.973 41.5705C114.727 42.0051 112.554 42.6571 110.453 43.5263C108.787 44.2145 107.085 45.0476 105.636 46.0979C104.368 47.0034 103.246 48.2711 102.992 49.8648C102.739 51.2411 103.282 52.5812 104.55 53.2332C105.926 53.9576 107.592 53.8489 109.077 53.704C116.792 53.0521 123.891 49.4301 130.7 45.9893C131.787 45.446 132.728 47.0759 131.642 47.6191C127.404 49.7561 123.13 51.893 118.639 53.4505C116.647 54.1387 114.655 54.7182 112.59 55.1166C110.671 55.4788 108.642 55.7685 106.686 55.6599C104.948 55.515 103.137 55.0079 102.05 53.5591C100.928 52.0741 100.819 50.0096 101.471 48.3435C102.159 46.5326 103.572 45.1562 105.201 44.1059ZM142.314 40.7012C143.074 41.0634 143.437 41.8602 143.364 42.6571C143.328 43.5263 143.002 44.3594 142.785 45.1924C142.567 46.1341 142.314 47.0396 142.06 47.9813C141.77 49.1404 139.959 48.6695 140.249 47.4743C140.503 46.5688 140.72 45.6633 140.974 44.794C141.589 42.3311 141.481 42.1862 139.235 43.7799C138.221 44.5767 137.279 45.446 136.41 46.3877C134.961 47.9813 133.73 49.7923 132.824 51.7482C132.607 52.219 132.39 52.6899 132.172 53.1607C131.738 54.1387 130.072 53.4143 130.47 52.4363C132.208 49.2128 133.512 44.5405 134.382 40.7374C134.671 39.5422 136.482 40.0493 136.193 41.2083C135.939 42.4398 135.613 43.6712 135.251 44.9027C136.591 43.4539 138.112 42.1862 139.778 41.1359C140.503 40.665 141.444 40.3028 142.314 40.7012ZM152.63 46.279C153.064 45.3011 154.694 46.0255 154.223 46.931C153.318 49.0317 151.724 51.2049 149.805 52.6899C148.573 53.5954 145.965 54.8993 144.987 52.7623C144.589 51.893 144.589 50.4443 144.806 48.923C145.096 46.7137 145.784 44.2869 146.291 42.9468C146.472 42.476 146.907 42.15 147.45 42.2949C147.885 42.4398 148.283 42.983 148.102 43.4539C147.631 44.6491 146.726 47.1845 146.472 49.3215C146.11 51.7482 146.509 52.7985 148.682 51.1324C150.203 49.7923 151.761 48.3798 152.63 46.279ZM148.102 39.1076C147.885 39.0713 147.668 38.8902 147.559 38.6729C147.414 38.4556 147.378 38.2021 147.45 37.9485C147.668 37.2604 147.849 36.5722 148.03 35.884C148.102 35.6667 148.283 35.4856 148.465 35.3407C148.682 35.1958 148.972 35.1958 149.189 35.2321C149.442 35.3045 149.66 35.4856 149.768 35.6667C149.877 35.884 149.913 36.1738 149.841 36.3911C149.66 37.0793 149.479 37.7674 149.261 38.4556C149.189 38.7091 149.044 38.8902 148.827 39.0351C148.609 39.1438 148.356 39.18 148.102 39.1076ZM169.334 46.3515C169.95 45.3373 171.471 46.0255 170.892 47.0759C168.899 50.7702 162.344 55.5874 158.903 51.3135C158.106 50.2994 157.418 49.2128 156.44 48.3435C154.738 52.9796 152.999 57.6157 151.152 62.2518C150.971 62.7227 150.536 63.0487 150.029 62.9038C149.558 62.7589 149.16 62.2156 149.341 61.7448C150.536 58.7385 151.695 55.7323 152.818 52.7261C153.506 50.9151 154.158 49.1041 154.81 47.2569C154.267 47.0034 153.687 46.7861 153.071 46.605C152.311 46.4239 152.13 45.2649 152.854 44.9027C153.977 44.3232 155.1 43.7437 156.259 43.2004C158.867 35.6667 161.293 28.0244 163.467 20.3821C163.792 19.1868 165.603 19.6939 165.277 20.8529C164.408 23.9678 163.467 27.0465 162.525 30.1251C161.293 34.1455 159.989 38.1296 158.613 42.1138C161.257 40.9185 163.937 39.7957 166.654 38.7816C167.161 38.6005 167.704 38.9989 167.813 39.4335C167.958 39.9768 167.632 40.4115 167.161 40.5926C163.974 41.7878 160.822 43.0917 157.78 44.5767C157.527 45.1924 157.309 45.8444 157.092 46.4601C157.382 46.6774 157.635 46.8948 157.889 47.1121C158.468 47.6191 158.975 48.2349 159.41 48.8506C159.845 49.4663 160.243 50.0459 160.786 50.5529C163.322 52.9072 168.03 48.4522 169.334 46.3515ZM179.434 53.8127C177.551 53.7402 177.334 51.6395 177.479 50.1545C177.551 49.5026 177.66 48.8144 177.805 48.1987C177.732 48.2711 177.624 48.3798 177.551 48.4522C176.609 49.3577 175.595 50.1907 174.545 50.9513C173.531 51.6757 172.48 52.4363 171.285 52.871C170.09 53.3056 168.605 53.197 167.663 52.2552C166.685 51.2411 166.83 49.7923 167.446 48.6695C168.46 46.5688 170.814 44.8302 172.987 43.7074C175.197 42.5122 177.696 41.8602 180.195 41.824C180.268 41.824 180.34 41.824 180.412 41.8602C180.63 41.498 180.811 41.1721 181.028 40.8461C181.608 39.7595 183.201 40.7012 182.622 41.7878C181.861 43.1641 181.101 44.5405 180.485 45.9893C179.978 47.2207 179.543 48.5609 179.398 49.8648C178.638 54.682 185.773 47.8002 186.606 46.3877C187.041 45.6633 187.475 45.4822 187.91 45.7719C188.308 46.0979 188.344 46.6774 188.091 47.1121C186.823 49.1041 182.151 53.9576 179.434 53.8127ZM172.335 50.1907C174.979 48.4884 177.298 46.3152 179.145 43.7799C177.189 43.961 175.269 44.5767 173.531 45.5184C171.865 46.4601 169.981 47.8365 169.039 49.6112C168.677 50.3356 168.75 51.1324 169.728 51.2411C170.669 51.3498 171.611 50.6616 172.335 50.1907ZM199.797 60.7668C198.385 60.7668 197.986 59.318 198.131 58.1228C198.348 56.7465 198.783 55.3339 199.145 53.9938C200.196 50.0821 201.391 46.2066 202.84 42.4035C201.536 42.5122 200.232 42.5846 198.928 42.7295C197.696 42.8382 197.624 40.9548 198.856 40.8461C200.449 40.7012 202.043 40.5563 203.6 40.4839C204.868 37.2966 206.281 34.1455 207.874 31.103C205.81 31.2479 203.745 31.5015 201.681 31.7912C201.174 31.8637 200.739 31.3566 200.703 30.8857C200.703 30.3424 201.137 30.0165 201.608 29.9078C204.035 29.5456 206.462 29.2921 208.888 29.1472C209.54 27.8795 210.228 26.6118 210.953 25.3441C211.569 24.33 213.235 25.1993 212.619 26.2134C212.076 27.1551 211.569 28.0968 211.025 29.0023C215.553 28.8212 220.08 29.0023 224.535 29.5094C225.042 29.5456 225.368 30.1976 225.26 30.6322C225.115 31.1755 224.644 31.3566 224.101 31.3204C219.464 30.7771 214.72 30.6684 210.047 30.9582C209.613 31.755 209.214 32.588 208.816 33.4211C207.657 35.7029 206.643 38.0572 205.665 40.4115C209.685 40.2304 213.706 40.3028 217.69 40.5926C218.197 40.6288 218.668 40.9548 218.668 41.498C218.704 41.9689 218.269 42.5122 217.762 42.476C213.488 42.1862 209.214 42.1138 204.904 42.3311C204.325 43.7437 203.781 45.2287 203.311 46.7137C202.55 48.9955 201.826 51.2773 201.21 53.5591C200.884 54.7544 200.594 55.8772 200.304 57.0362C200.196 57.5071 199.978 58.159 199.978 58.5212C199.978 58.6299 199.978 58.7385 199.978 58.8472C199.978 58.8834 199.978 58.8834 199.978 58.9196C200.92 59.137 200.92 60.7668 199.797 60.7668ZM238.861 46.279C239.441 45.3373 240.419 46.3152 239.948 47.0759C238.209 49.8648 227.923 57.0724 229.227 48.5246C229.263 48.4522 229.263 48.416 229.299 48.3435C229.227 48.3798 229.19 48.4522 229.154 48.4884C228.104 49.8648 226.872 51.06 225.46 52.0379C224.011 52.9796 221.874 53.6316 220.824 52.2552C219.773 51.0238 220.28 48.9955 220.715 47.4743C221.222 45.6633 221.983 43.9248 222.997 42.2587C223.685 41.2083 225.17 42.15 224.518 43.2366C223.54 44.7578 222.852 46.4239 222.381 48.1262C222.236 48.8506 221.621 50.8065 222.562 51.1324C223.033 51.3135 223.685 50.9876 224.156 50.734C224.735 50.408 225.243 50.0096 225.786 49.575C227.923 47.6916 229.372 45.1562 230.784 42.7295C231.038 42.2949 231.617 42.1862 232.016 42.3311C232.45 42.5122 232.559 42.983 232.414 43.4539C232.016 44.9751 231.617 46.5326 231.255 48.0538C229.842 54.1387 238.173 47.4743 238.861 46.279ZM248.977 47.438C246.803 49.5388 241.805 52.5088 239.125 53.8489C238.654 55.8772 238.074 57.9055 237.459 59.8976C236.698 62.4329 235.865 64.9683 234.706 67.3588C233.656 69.5682 232.316 71.8862 230.323 73.3712C229.273 74.1681 228.005 74.6389 226.702 74.4578C225.542 74.2405 224.637 73.5161 223.949 72.5744C222.609 70.691 222.464 68.0832 222.935 65.8376C223.985 60.9117 228.042 57.5433 232.243 55.2252C233.945 54.2835 235.756 53.4505 237.531 52.5812C238.4 48.8868 239.089 45.1562 239.596 41.3894C239.632 40.8823 239.958 40.4477 240.537 40.4477C240.972 40.4477 241.515 40.8823 241.443 41.3894C241.044 44.794 240.429 48.1624 239.704 51.4946C241.696 50.408 246.007 47.6916 247.636 46.0979C248.506 45.2649 249.846 46.605 248.977 47.438ZM236.445 56.8189C236.589 56.167 236.771 55.5512 236.952 54.9355C235.539 55.6237 234.163 56.3118 232.823 57.0362C229.056 59.1732 225.434 62.2518 224.673 66.7793C224.383 68.5178 224.601 70.9445 226.05 72.1398C227.788 73.5885 229.853 71.4516 230.867 70.1477C232.279 68.3005 233.257 66.1998 234.054 64.0628C234.96 61.7085 235.72 59.2456 236.445 56.8189ZM240.718 37.6588C239.487 37.6588 239.559 34.5439 240.791 34.5439C241.986 34.5439 241.914 37.6588 240.718 37.6588ZM255.098 46.279C255.533 45.3011 257.163 46.0255 256.692 46.931C255.787 49.0317 254.193 51.2049 252.273 52.6899C251.042 53.5954 248.434 54.8993 247.456 52.7623C247.058 51.893 247.058 50.4443 247.275 48.923C247.565 46.7137 248.253 44.2869 248.76 42.9468C248.941 42.476 249.376 42.15 249.919 42.2949C250.354 42.4398 250.752 42.983 250.571 43.4539C250.1 44.6491 249.195 47.1845 248.941 49.3215C248.579 51.7482 248.977 52.7985 251.151 51.1324C252.672 49.7923 254.229 48.3798 255.098 46.279ZM250.571 39.1076C250.354 39.0713 250.136 38.8902 250.028 38.6729C249.883 38.4556 249.847 38.2021 249.919 37.9485C250.136 37.2604 250.318 36.5722 250.499 35.884C250.571 35.6667 250.752 35.4856 250.933 35.3407C251.151 35.1958 251.44 35.1958 251.658 35.2321C251.911 35.3045 252.128 35.4856 252.237 35.6667C252.346 35.884 252.382 36.1738 252.31 36.3911C252.128 37.0793 251.947 37.7674 251.73 38.4556C251.658 38.7091 251.513 38.8902 251.295 39.0351C251.078 39.1438 250.825 39.18 250.571 39.1076ZM271.404 45.1562C272.853 41.1359 272.563 40.1217 271.513 40.1579C268.724 40.2666 265.537 47.8365 264.052 50.8789C263.653 51.6757 262.458 50.9513 262.458 50.227C262.458 49.5026 261.698 43.7799 260.864 43.8523C260.321 43.8885 259.887 44.5405 259.561 44.9751C257.786 47.3656 256.337 50.0459 255.25 52.8348C255.033 53.3056 254.598 53.6316 254.091 53.4867C253.621 53.3418 253.258 52.7985 253.439 52.3277C254.454 49.2852 255.142 46.1341 255.468 42.9468C255.54 42.4398 255.866 42.0051 256.409 42.0051C256.88 42.0051 257.424 42.4398 257.351 42.9468C257.279 43.7437 257.17 44.5405 257.061 45.3011C257.279 44.9751 257.496 44.6129 257.75 44.2869C258.546 43.1641 259.524 41.9327 261.046 41.9689C263.436 42.0776 263.617 45.2649 263.871 47.2207C265.682 43.7437 269.159 37.695 272.31 37.7674C274.302 37.8037 275.388 39.9044 272.998 45.7357C271.767 48.7057 271.839 52.4001 276.185 49.9372C278.105 48.8506 280.061 47.0034 280.387 46.279C280.821 45.3011 282.415 45.8444 281.763 47.0759C281.184 48.1987 279.155 50.0459 276.982 51.3135C271.006 54.863 269.014 51.8568 271.404 45.1562ZM295.024 45.9168C296.183 45.5909 296.69 47.4018 295.531 47.7278C294.336 48.0538 291.511 48.3798 290.279 48.5609C289.917 49.0679 289.555 49.5026 289.193 49.9372C287.997 51.3135 286.585 52.545 284.991 53.4505C283.687 54.2473 281.768 54.8268 280.428 53.8127C278.834 52.5812 279.413 50.0459 279.776 48.3798C280.21 46.6412 280.971 44.9389 281.949 43.4539C282.383 42.476 283.18 41.6791 284.049 41.0996C285.643 40.0493 287.744 39.6146 289.519 40.4115C291.366 41.2083 292.308 43.0193 291.945 44.9751C291.873 45.4822 291.692 45.953 291.511 46.4239C292.126 46.279 294.408 46.0617 295.024 45.9168ZM284.339 43.2366C284.194 43.3815 284.086 43.5626 283.941 43.7074C283.941 43.8161 283.905 43.9248 283.832 44.0334C283.76 44.1059 283.723 44.1783 283.651 44.2869C283.47 44.9027 283.542 45.5546 284.158 46.0979C285.245 47.1483 287.019 47.0034 288.396 46.8948C288.649 46.8585 288.939 46.8223 289.193 46.7861C289.663 46.0617 290.026 45.2649 290.134 44.4318C290.315 43.1279 289.338 42.1138 288.07 41.8965C286.766 41.7154 285.281 42.3311 284.339 43.2366ZM285.064 51.1687C286.042 50.5167 286.911 49.6837 287.671 48.8144C287.382 48.8144 287.128 48.8144 286.838 48.8144C285.136 48.8144 283.253 48.2349 282.275 46.8223C282.021 47.438 281.804 48.0538 281.659 48.7419C281.442 49.5388 281.297 50.408 281.261 51.2411C281.261 51.893 281.369 52.3639 281.949 52.4363C282.999 52.6174 284.194 51.7844 285.064 51.1687ZM304.528 47.3294C303.369 48.9955 301.233 51.6395 299.458 53.0521C298.48 53.8489 297.429 54.4646 296.524 54.2835C295.836 54.1749 295.256 53.6678 294.93 53.0521C293.59 50.6616 294.822 45.5546 295.546 42.8019C296.452 39.1438 297.719 35.5943 299.059 32.1172C296.922 32.3345 294.749 32.588 292.612 32.8416C292.105 32.8778 291.671 32.3345 291.671 31.8999C291.671 31.3566 292.105 30.9944 292.612 30.9582L299.82 30.1251C301.051 27.0827 302.355 24.0402 303.768 21.0702C303.985 20.5994 304.673 20.4907 305.072 20.7443C305.543 20.9978 305.615 21.5411 305.398 22.0119C304.166 24.6198 303.007 27.2276 301.957 29.9078L311.41 28.8574C311.917 28.785 312.352 29.3283 312.352 29.7991C312.352 30.3424 311.917 30.6684 311.41 30.7408L301.16 31.8637C301.015 32.2983 300.834 32.7691 300.653 33.2038C299.385 36.536 298.19 39.9044 297.321 43.3815C296.886 45.0838 296.56 46.7861 296.379 48.5246C295.836 52.4001 297.067 52.4363 298.588 51.2411C300.255 49.9372 301.812 47.9813 303.08 46.1341C303.369 45.7357 304.021 45.7357 304.384 46.0255C304.818 46.3515 304.818 46.931 304.528 47.3294ZM317.59 45.9168C318.749 45.5909 319.257 47.4018 318.098 47.7278C316.902 48.0538 314.077 48.3798 312.846 48.5609C312.484 49.0679 312.121 49.5026 311.759 49.9372C310.564 51.3135 309.151 52.545 307.558 53.4505C306.254 54.2473 304.334 54.8268 302.994 53.8127C301.4 52.5812 301.98 50.0459 302.342 48.3798C302.777 46.6412 303.537 44.9389 304.515 43.4539C304.95 42.476 305.747 41.6791 306.616 41.0996C308.21 40.0493 310.31 39.6146 312.085 40.4115C313.932 41.2083 314.874 43.0193 314.512 44.9751C314.439 45.4822 314.258 45.953 314.077 46.4239C314.693 46.279 316.975 46.0617 317.59 45.9168ZM306.906 43.2366C306.761 43.3815 306.652 43.5626 306.507 43.7074C306.507 43.8161 306.471 43.9248 306.399 44.0334C306.326 44.1059 306.29 44.1783 306.218 44.2869C306.036 44.9027 306.109 45.5546 306.725 46.0979C307.811 47.1483 309.586 47.0034 310.962 46.8948C311.216 46.8585 311.506 46.8223 311.759 46.7861C312.23 46.0617 312.592 45.2649 312.701 44.4318C312.882 43.1279 311.904 42.1138 310.636 41.8965C309.332 41.7154 307.847 42.3311 306.906 43.2366ZM307.63 51.1687C308.608 50.5167 309.477 49.6837 310.238 48.8144C309.948 48.8144 309.695 48.8144 309.405 48.8144C307.703 48.8144 305.819 48.2349 304.841 46.8223C304.588 47.438 304.37 48.0538 304.225 48.7419C304.008 49.5388 303.863 50.408 303.827 51.2411C303.827 51.893 303.936 52.3639 304.515 52.4363C305.566 52.6174 306.761 51.7844 307.63 51.1687Z" fill="white"/>
<path d="M73.2309 23.2074C72.794 11.968 65.6358 4 56.2301 4C46.2875 4 43.7348 9.49843 38.624 9.49843C33.5185 9.49843 30.9658 4 21.0179 4C11.6122 4 4.45928 11.968 4.01716 23.2074C3.48029 36.9807 15.6335 73.5 27.5919 73.5C35.787 73.5 33.4711 62.0429 34.8133 57.7075C35.1765 56.5395 36.1028 54.6242 38.624 54.6242C41.1452 54.6242 42.0715 56.5395 42.4347 57.7075C43.7769 62.0478 41.461 73.5 49.6561 73.5C61.6145 73.5 73.7677 36.9807 73.2309 23.2074Z" stroke="url(#paint0_linear_2085_54)" stroke-width="6.73939" stroke-miterlimit="10"/>
<defs>
<linearGradient id="paint0_linear_2085_54" x1="4" y1="38.75" x2="73.248" y2="38.75" gradientUnits="userSpaceOnUse">
<stop stop-color="#0BD894"/>
<stop offset="1" stop-color="#09AC96"/>
</linearGradient>
</defs>
</svg>
