<svg width="24" height="31" viewBox="0 0 24 31" fill="none" xmlns="http://www.w3.org/2000/svg">
<path d="M8.73902 30.859C8.40163 30.859 8.03211 30.7626 7.59833 30.4894C7.29307 30.2645 0.754222 25.4929 1.20407 12.0939C0.689958 10.905 -1.91273 4.2537 2.65001 1.24937C4.09595 0.189012 7.79112 -1.11233 11.2132 1.66708C11.2292 1.68315 11.2774 1.71528 11.3096 1.74741C11.4702 1.87594 11.6791 1.87594 11.8397 1.73135C12.0004 1.60282 12.1611 1.47429 12.3217 1.36183C15.6313 -1.01594 19.1337 0.253277 20.5154 1.26543C25.046 4.2537 22.4433 10.905 21.9292 12.0939C22.379 25.4929 15.8402 30.2806 15.5671 30.4734C14.4585 31.1803 13.6231 30.7626 13.2857 30.393C12.6109 29.7665 12.9322 28.6419 13.0929 28.2241C14.1854 23.4365 13.3339 20.641 12.4342 19.1308C12.2575 18.8255 11.9201 18.6488 11.5506 18.6488C11.181 18.6488 10.8597 18.8255 10.683 19.1308C9.76723 20.641 8.91574 23.4365 10.0243 28.2241C10.185 28.6419 10.5063 29.7504 9.8315 30.377C9.65477 30.618 9.26919 30.859 8.73902 30.859ZM6.73077 1.52249C4.93138 1.52249 3.61397 2.43825 3.51757 2.50251C-0.33826 5.04094 2.61788 11.5798 2.65001 11.6441C2.69821 11.7565 2.73034 11.869 2.71428 11.9975C2.2323 24.7218 8.36949 29.2202 8.43376 29.2524C8.46589 29.2684 8.70688 29.413 8.70688 29.413C8.72295 29.397 8.72295 29.3809 8.73902 29.3809C8.73902 29.2524 8.69081 28.9632 8.61048 28.7543C8.59441 28.7222 8.57836 28.6901 8.57836 28.6419C7.34128 23.324 8.35342 20.1108 9.41378 18.3757C9.86363 17.6206 10.683 17.1707 11.5666 17.1707C12.4663 17.1707 13.2696 17.6206 13.7355 18.3757C14.7959 20.1269 15.792 23.324 14.571 28.6419C14.5549 28.674 14.5549 28.7222 14.5388 28.7543C14.4585 28.9471 14.3942 29.2363 14.4103 29.3648C14.4424 29.3648 14.5549 29.3488 14.7477 29.2363C14.7798 29.2202 20.917 24.6575 20.435 11.9975C20.435 11.885 20.4511 11.7565 20.4993 11.6441C20.5314 11.5798 23.4876 5.04094 19.6639 2.53464C19.5032 2.42218 16.4507 0.285408 13.2054 2.61497C13.0768 2.71137 12.9483 2.80777 12.8198 2.92023C12.0968 3.51467 11.0846 3.51467 10.3617 2.92023L10.3456 2.90416C10.3295 2.8881 10.2974 2.87203 10.2813 2.85596C9.0282 1.84381 7.79112 1.52249 6.73077 1.52249Z" fill="url(#paint0_linear_2024_1032)"/>
<path d="M15.1499 7.09732L11.8242 12.4312C11.6475 12.7043 11.3583 12.865 11.0531 12.865C10.8924 12.865 10.7318 12.8168 10.5711 12.7204C10.1534 12.4473 10.0088 11.901 10.2819 11.4673L12.74 7.51504H10.1373C9.84813 7.51504 9.57501 7.37044 9.39829 7.12945C9.22156 6.88846 9.18943 6.58321 9.28583 6.31009L10.7318 2.26146C10.7639 2.27753 10.78 2.29359 10.8121 2.32573C11.2459 2.69524 11.8725 2.69524 12.3223 2.32573C12.4669 2.1972 12.6115 2.1008 12.7561 1.98834L11.4226 5.69958H14.3627C14.7001 5.69958 14.9892 5.87631 15.1499 6.1655C15.3427 6.47075 15.3266 6.80814 15.1499 7.09732Z" fill="url(#paint1_linear_2024_1032)"/>
<defs>
<linearGradient id="paint0_linear_2024_1032" x1="0" y1="15.4295" x2="23.1387" y2="15.4295" gradientUnits="userSpaceOnUse">
<stop stop-color="#0BD894"/>
<stop offset="1" stop-color="#09AC96"/>
</linearGradient>
<linearGradient id="paint1_linear_2024_1032" x1="9.23242" y1="7.42667" x2="15.2885" y2="7.42667" gradientUnits="userSpaceOnUse">
<stop stop-color="#0BD894"/>
<stop offset="1" stop-color="#09AC96"/>
</linearGradient>
</defs>
</svg>
