<svg width="34" height="34" viewBox="0 0 34 34" fill="none" xmlns="http://www.w3.org/2000/svg">
<path d="M32.3819 10.4291C32.1902 5.49676 29.0488 2 24.9211 2C20.5578 2 19.4376 4.41298 17.1947 4.41298C14.9542 4.41298 13.8339 2 9.4683 2C5.34062 2 2.20156 5.49676 2.00753 10.4291C1.77193 16.4735 7.10534 32.5 12.3533 32.5C15.9497 32.5 14.9334 27.4721 15.5224 25.5695C15.6818 25.0569 16.0883 24.2164 17.1947 24.2164C18.3011 24.2164 18.7077 25.0569 18.867 25.5695C19.456 27.4742 18.4397 32.5 22.0361 32.5C27.2841 32.5 32.6175 16.4735 32.3819 10.4291Z" stroke="url(#paint0_linear_2023_864)" stroke-width="2.95758" stroke-miterlimit="10"/>
<defs>
<linearGradient id="paint0_linear_2023_864" x1="2" y1="17.25" x2="32.3894" y2="17.25" gradientUnits="userSpaceOnUse">
<stop stop-color="#0BD894"/>
<stop offset="1" stop-color="#09AC96"/>
</linearGradient>
</defs>
</svg>
