<svg width="24" height="24" viewBox="0 0 24 24" fill="none" xmlns="http://www.w3.org/2000/svg">
<path d="M15.5556 8.62083V15.15C15.5556 18.3809 12.9688 21 9.77778 21C6.5868 21 4 18.3809 4 15.15C4 11.9191 6.5868 9.3 9.77778 9.3C10.2367 9.3 10.6831 9.35417 11.1111 9.45654V12.3031C10.707 12.1087 10.2549 12 9.77778 12C8.05956 12 6.66667 13.4103 6.66667 15.15C6.66667 16.8897 8.05956 18.3 9.77778 18.3C11.496 18.3 12.8889 16.8897 12.8889 15.15V3H15.5556C15.5556 5.48528 17.5454 7.5 20 7.5V10.2C18.3183 10.2 16.773 9.60895 15.5556 8.62083Z" fill="white"/>
</svg>
