<svg width="22" height="29" viewBox="0 0 22 29" fill="none" xmlns="http://www.w3.org/2000/svg">
<path d="M3.29333 9.3506C3.05371 9.3506 2.82905 9.18586 2.75417 8.94623C1.48116 4.55808 3.47305 3.01548 4.77602 2.4913C5.79443 2.07195 6.96261 2.10191 7.98102 2.55121C8.38539 2.73093 8.66994 2.95558 8.98445 3.34497C9.17915 3.5846 9.1492 3.94403 8.90957 4.13873C8.66994 4.33343 8.31051 4.30347 8.11581 4.06385C7.90614 3.80924 7.75637 3.68943 7.51674 3.5846C6.78289 3.25511 5.92922 3.24013 5.19536 3.53966C3.09863 4.39333 3.29333 6.77462 3.83249 8.6467C3.92235 8.94623 3.74263 9.26074 3.4431 9.3506C3.39817 9.33562 3.33826 9.3506 3.29333 9.3506Z" fill="url(#paint0_linear_2024_1041)"/>
<path d="M19.7534 14.5026H1.84131C1.46689 14.5026 1.15238 14.2031 1.13741 13.8287C1.10745 12.96 1.09248 12.1064 1.12243 11.2677C0.643176 10.1744 -1.78304 3.97404 2.47033 1.15843C2.4853 1.14345 6.51402 -1.71708 10.5278 1.60773C10.6775 1.72754 10.8872 1.72754 11.037 1.60773C15.0507 -1.71708 19.0794 1.14345 19.1243 1.17341C23.3627 3.95906 20.9215 10.1594 20.4573 11.2527C20.4872 12.1064 20.4872 12.945 20.4423 13.8137C20.4273 14.2031 20.1278 14.5026 19.7534 14.5026ZM2.51526 13.0948H19.0644C19.0794 12.4358 19.0794 11.7918 19.0495 11.1479C19.0495 11.043 19.0644 10.9232 19.1094 10.8184C19.1393 10.7585 21.895 4.67794 18.3306 2.32661C18.1808 2.22177 15.1106 0.0651377 11.9356 2.68605C11.2766 3.24019 10.3031 3.24019 9.64414 2.68605C6.45411 0.050161 3.30902 2.28168 3.27907 2.31163C-0.315328 4.67794 2.44037 10.7734 2.47033 10.8333C2.51526 10.9382 2.54521 11.043 2.53023 11.1628C2.51526 11.8068 2.51526 12.4508 2.51526 13.0948Z" fill="url(#paint1_linear_2024_1041)"/>
<path d="M18.6604 17.3931H2.90501C2.60547 17.3931 2.35087 17.2134 2.24604 16.9289L1.18269 14.0384C1.10781 13.8287 1.13776 13.5741 1.27255 13.3944C1.40734 13.1997 1.61702 13.0948 1.85664 13.0948H19.7387C19.9634 13.0948 20.188 13.2147 20.3228 13.3944C20.4576 13.5891 20.4876 13.8287 20.4127 14.0384L19.3494 16.9289C19.2295 17.2134 18.96 17.3931 18.6604 17.3931ZM3.39924 15.9853H18.1812L18.7203 14.5027H2.8451L3.39924 15.9853Z" fill="url(#paint2_linear_2024_1041)"/>
<path d="M10.3461 29C9.95666 29 9.64216 28.6855 9.64216 28.2961V26.0496C9.64216 25.6603 9.95666 25.3458 10.3461 25.3458H13.4462V24.7766H7.39566C7.00627 24.7766 6.69176 24.4621 6.69176 24.0727V21.7514C6.69176 21.362 7.00627 21.0475 7.39566 21.0475H15.4082V19.9991H5.41875C5.02935 19.9991 4.71484 19.6846 4.71484 19.2952V16.6892C4.71484 16.2999 5.02935 15.9854 5.41875 15.9854C5.80814 15.9854 6.12265 16.2999 6.12265 16.6892V18.5913H16.1121C16.5015 18.5913 16.816 18.9058 16.816 19.2952V21.7514C16.816 22.1407 16.5015 22.4553 16.1121 22.4553H8.08459V23.3688H14.1351C14.5245 23.3688 14.839 23.6833 14.839 24.0727V26.0496C14.839 26.439 14.5245 26.7535 14.1351 26.7535H11.035V28.2961C11.05 28.6855 10.7354 29 10.3461 29Z" fill="url(#paint3_linear_2024_1041)"/>
<defs>
<linearGradient id="paint0_linear_2024_1041" x1="2.3457" y1="5.77262" x2="9.11225" y2="5.77262" gradientUnits="userSpaceOnUse">
<stop stop-color="#0BD894"/>
<stop offset="1" stop-color="#09AC96"/>
</linearGradient>
<linearGradient id="paint1_linear_2024_1041" x1="0" y1="7.25131" x2="21.5773" y2="7.25131" gradientUnits="userSpaceOnUse">
<stop stop-color="#0BD894"/>
<stop offset="1" stop-color="#09AC96"/>
</linearGradient>
<linearGradient id="paint2_linear_2024_1041" x1="1.14258" y1="15.244" x2="20.4528" y2="15.244" gradientUnits="userSpaceOnUse">
<stop stop-color="#0BD894"/>
<stop offset="1" stop-color="#09AC96"/>
</linearGradient>
<linearGradient id="paint3_linear_2024_1041" x1="4.71484" y1="22.4927" x2="16.816" y2="22.4927" gradientUnits="userSpaceOnUse">
<stop stop-color="#0BD894"/>
<stop offset="1" stop-color="#09AC96"/>
</linearGradient>
</defs>
</svg>
