<svg width="220" height="152" viewBox="0 0 220 152" fill="none" xmlns="http://www.w3.org/2000/svg">
<path d="M5.20146 121.106C6.90378 120.019 8.82342 119.15 10.7431 118.426C11.3226 118.172 11.9021 117.991 12.4816 117.774C12.1918 117.701 11.9021 117.593 11.6123 117.52C10.0911 116.977 8.64232 116.18 8.06281 114.55C7.51951 113.101 8.02659 111.399 8.7872 110.131C10.3446 107.524 13.0973 105.785 15.8138 104.662C18.5302 103.503 21.5365 102.887 24.4702 102.634C27.0781 102.417 30.0843 102.887 31.2071 105.531C31.4244 106.002 30.9898 106.582 30.5551 106.69C30.0118 106.835 29.6134 106.509 29.3961 106.039C29.215 105.64 28.8528 105.278 28.4544 105.061C28.0198 104.807 27.5127 104.662 26.9332 104.554C25.7742 104.336 24.5065 104.481 23.3474 104.662C20.7759 105.024 18.1681 105.604 15.8138 106.69C13.5682 107.705 11.2501 109.298 10.1635 111.58C9.69268 112.486 9.47537 113.753 10.1998 114.586C11.069 115.564 12.6627 115.926 13.8941 116.216C14.8721 116.47 15.85 116.615 16.8279 116.687C18.9287 116.289 21.0294 116.071 23.1301 116.035C24.1805 115.999 24.3616 117.593 23.3474 117.882C21.2829 118.462 19.1098 118.679 16.9728 118.57C14.7272 119.005 12.554 119.657 10.4533 120.526C8.7872 121.215 7.08488 122.048 5.6361 123.098C4.36842 124.003 3.24561 125.271 2.99207 126.865C2.73854 128.241 3.28183 129.581 4.54951 130.233C5.92585 130.958 7.59195 130.849 9.07695 130.704C16.7917 130.052 23.8907 126.43 30.7 122.989C31.7866 122.446 32.7283 124.076 31.6417 124.619C27.404 126.756 23.1301 128.893 18.6389 130.45C16.6468 131.139 14.6548 131.718 12.5902 132.117C10.6706 132.479 8.64232 132.769 6.68646 132.66C4.94793 132.515 3.13695 132.008 2.05037 130.559C0.927561 129.074 0.818902 127.01 1.47085 125.344C2.15902 123.533 3.57159 122.156 5.20146 121.106ZM42.3137 117.701C43.0743 118.063 43.4365 118.86 43.3641 119.657C43.3279 120.526 43.0019 121.359 42.7846 122.192C42.5673 123.134 42.3137 124.04 42.0602 124.981C41.7704 126.14 39.9595 125.67 40.2492 124.474C40.5028 123.569 40.7201 122.663 40.9736 121.794C41.5893 119.331 41.4807 119.186 39.2351 120.78C38.2209 121.577 37.2792 122.446 36.41 123.388C34.9612 124.981 33.7297 126.792 32.8242 128.748C32.6069 129.219 32.3896 129.69 32.1723 130.161C31.7376 131.139 30.0715 130.414 30.47 129.436C32.2085 126.213 33.5124 121.54 34.3817 117.737C34.6714 116.542 36.4824 117.049 36.1926 118.208C35.9391 119.44 35.6131 120.671 35.2509 121.903C36.5911 120.454 38.1123 119.186 39.7784 118.136C40.5028 117.665 41.4445 117.303 42.3137 117.701ZM52.6298 123.279C53.0644 122.301 54.6943 123.025 54.2235 123.931C53.318 126.032 51.7243 128.205 49.8047 129.69C48.5732 130.595 45.9654 131.899 44.9875 129.762C44.5891 128.893 44.5891 127.444 44.8064 125.923C45.0961 123.714 45.7843 121.287 46.2914 119.947C46.4725 119.476 46.9071 119.15 47.4504 119.295C47.885 119.44 48.2834 119.983 48.1024 120.454C47.6315 121.649 46.726 124.185 46.4725 126.321C46.1103 128.748 46.5087 129.799 48.6819 128.132C50.2031 126.792 51.7605 125.38 52.6298 123.279ZM48.1024 116.108C47.885 116.071 47.6677 115.89 47.5591 115.673C47.4142 115.456 47.378 115.202 47.4504 114.949C47.6677 114.26 47.8488 113.572 48.0299 112.884C48.1024 112.667 48.2834 112.486 48.4645 112.341C48.6819 112.196 48.9716 112.196 49.1889 112.232C49.4425 112.305 49.6598 112.486 49.7685 112.667C49.8771 112.884 49.9133 113.174 49.8409 113.391C49.6598 114.079 49.4787 114.767 49.2614 115.456C49.1889 115.709 49.0441 115.89 48.8267 116.035C48.6094 116.144 48.3559 116.18 48.1024 116.108ZM69.3341 123.351C69.9498 122.337 71.471 123.025 70.8915 124.076C68.8994 127.77 62.3437 132.587 58.9028 128.314C58.106 127.299 57.4178 126.213 56.4399 125.344C54.7376 129.98 52.9991 134.616 51.1519 139.252C50.9708 139.723 50.5361 140.049 50.0291 139.904C49.5582 139.759 49.1598 139.216 49.3409 138.745C50.5361 135.739 51.6952 132.732 52.818 129.726C53.5061 127.915 54.1581 126.104 54.81 124.257C54.2667 124.003 53.6872 123.786 53.0715 123.605C52.3109 123.424 52.1298 122.265 52.8542 121.903C53.977 121.323 55.0998 120.744 56.2588 120.2C58.8666 112.667 61.2933 105.024 63.4665 97.3821C63.7925 96.1868 65.6035 96.6939 65.2775 97.8529C64.4082 100.968 63.4665 104.046 62.5248 107.125C61.2933 111.145 59.9894 115.13 58.6131 119.114C61.2571 117.919 63.9374 116.796 66.6538 115.782C67.1609 115.6 67.7042 115.999 67.8128 116.434C67.9577 116.977 67.6317 117.411 67.1609 117.593C63.9736 118.788 60.8225 120.092 57.78 121.577C57.5265 122.192 57.3092 122.844 57.0919 123.46C57.3816 123.677 57.6352 123.895 57.8887 124.112C58.4682 124.619 58.9753 125.235 59.4099 125.851C59.8445 126.466 60.243 127.046 60.7863 127.553C63.3216 129.907 68.0302 125.452 69.3341 123.351ZM79.4345 130.813C77.5511 130.74 77.3338 128.64 77.4786 127.155C77.5511 126.503 77.6597 125.814 77.8046 125.199C77.7322 125.271 77.6235 125.38 77.5511 125.452C76.6094 126.358 75.5952 127.191 74.5449 127.951C73.5307 128.676 72.4803 129.436 71.2851 129.871C70.0899 130.306 68.6049 130.197 67.6631 129.255C66.6852 128.241 66.8301 126.792 67.4458 125.67C68.46 123.569 70.8142 121.83 72.9874 120.707C75.1968 119.512 77.696 118.86 80.1951 118.824C80.2675 118.824 80.34 118.824 80.4124 118.86C80.6297 118.498 80.8108 118.172 81.0282 117.846C81.6077 116.76 83.2013 117.701 82.6218 118.788C81.8612 120.164 81.1006 121.54 80.4849 122.989C79.9778 124.221 79.5432 125.561 79.3983 126.865C78.6377 131.682 85.7729 124.8 86.606 123.388C87.0406 122.663 87.4752 122.482 87.9099 122.772C88.3083 123.098 88.3445 123.677 88.091 124.112C86.8233 126.104 82.151 130.958 79.4345 130.813ZM72.3355 127.191C74.9795 125.488 77.2975 123.315 79.1447 120.78C77.1889 120.961 75.2692 121.577 73.5307 122.518C71.8646 123.46 69.9812 124.836 69.0395 126.611C68.6773 127.336 68.7497 128.132 69.7277 128.241C70.6694 128.35 71.6111 127.662 72.3355 127.191ZM99.7972 137.767C98.3847 137.767 97.9862 136.318 98.1311 135.123C98.3484 133.746 98.7831 132.334 99.1453 130.994C100.196 127.082 101.391 123.207 102.84 119.404C101.536 119.512 100.232 119.585 98.928 119.73C97.6965 119.838 97.624 117.955 98.8555 117.846C100.449 117.701 102.043 117.556 103.6 117.484C104.868 114.297 106.281 111.145 107.874 108.103C105.81 108.248 103.745 108.501 101.681 108.791C101.174 108.864 100.739 108.357 100.703 107.886C100.703 107.342 101.137 107.016 101.608 106.908C104.035 106.546 106.462 106.292 108.888 106.147C109.54 104.88 110.228 103.612 110.953 102.344C111.569 101.33 113.235 102.199 112.619 103.213C112.076 104.155 111.569 105.097 111.025 106.002C115.553 105.821 120.08 106.002 124.535 106.509C125.042 106.546 125.368 107.198 125.26 107.632C125.115 108.175 124.644 108.357 124.101 108.32C119.464 107.777 114.72 107.668 110.047 107.958C109.613 108.755 109.214 109.588 108.816 110.421C107.657 112.703 106.643 115.057 105.665 117.411C109.685 117.23 113.706 117.303 117.69 117.593C118.197 117.629 118.668 117.955 118.668 118.498C118.704 118.969 118.269 119.512 117.762 119.476C113.488 119.186 109.214 119.114 104.904 119.331C104.325 120.744 103.781 122.229 103.311 123.714C102.55 125.995 101.826 128.277 101.21 130.559C100.884 131.754 100.594 132.877 100.304 134.036C100.196 134.507 99.9783 135.159 99.9783 135.521C99.9783 135.63 99.9783 135.739 99.9783 135.847C99.9783 135.883 99.9783 135.883 99.9783 135.92C100.92 136.137 100.92 137.767 99.7972 137.767ZM138.861 123.279C139.441 122.337 140.419 123.315 139.948 124.076C138.209 126.865 127.923 134.072 129.227 125.525C129.263 125.452 129.263 125.416 129.299 125.344C129.227 125.38 129.19 125.452 129.154 125.488C128.104 126.865 126.872 128.06 125.46 129.038C124.011 129.98 121.874 130.632 120.824 129.255C119.773 128.024 120.28 125.995 120.715 124.474C121.222 122.663 121.983 120.925 122.997 119.259C123.685 118.208 125.17 119.15 124.518 120.237C123.54 121.758 122.852 123.424 122.381 125.126C122.236 125.851 121.621 127.806 122.562 128.132C123.033 128.314 123.685 127.988 124.156 127.734C124.735 127.408 125.243 127.01 125.786 126.575C127.923 124.692 129.372 122.156 130.784 119.73C131.038 119.295 131.617 119.186 132.016 119.331C132.45 119.512 132.559 119.983 132.414 120.454C132.016 121.975 131.617 123.533 131.255 125.054C129.842 131.139 138.173 124.474 138.861 123.279ZM148.977 124.438C146.803 126.539 141.805 129.509 139.125 130.849C138.654 132.877 138.074 134.905 137.459 136.898C136.698 139.433 135.865 141.968 134.706 144.359C133.656 146.568 132.316 148.886 130.323 150.371C129.273 151.168 128.005 151.639 126.702 151.458C125.542 151.24 124.637 150.516 123.949 149.574C122.609 147.691 122.464 145.083 122.935 142.838C123.985 137.912 128.042 134.543 132.243 132.225C133.945 131.284 135.756 130.45 137.531 129.581C138.4 125.887 139.089 122.156 139.596 118.389C139.632 117.882 139.958 117.448 140.537 117.448C140.972 117.448 141.515 117.882 141.443 118.389C141.044 121.794 140.429 125.162 139.704 128.495C141.696 127.408 146.007 124.692 147.636 123.098C148.506 122.265 149.846 123.605 148.977 124.438ZM136.445 133.819C136.589 133.167 136.771 132.551 136.952 131.935C135.539 132.624 134.163 133.312 132.823 134.036C129.056 136.173 125.434 139.252 124.673 143.779C124.383 145.518 124.601 147.945 126.05 149.14C127.788 150.589 129.853 148.452 130.867 147.148C132.279 145.3 133.257 143.2 134.054 141.063C134.96 138.709 135.72 136.246 136.445 133.819ZM140.718 114.659C139.487 114.659 139.559 111.544 140.791 111.544C141.986 111.544 141.914 114.659 140.718 114.659ZM155.098 123.279C155.533 122.301 157.163 123.025 156.692 123.931C155.787 126.032 154.193 128.205 152.273 129.69C151.042 130.595 148.434 131.899 147.456 129.762C147.058 128.893 147.058 127.444 147.275 125.923C147.565 123.714 148.253 121.287 148.76 119.947C148.941 119.476 149.376 119.15 149.919 119.295C150.354 119.44 150.752 119.983 150.571 120.454C150.1 121.649 149.195 124.185 148.941 126.321C148.579 128.748 148.977 129.799 151.151 128.132C152.672 126.792 154.229 125.38 155.098 123.279ZM150.571 116.108C150.354 116.071 150.136 115.89 150.028 115.673C149.883 115.456 149.847 115.202 149.919 114.949C150.136 114.26 150.318 113.572 150.499 112.884C150.571 112.667 150.752 112.486 150.933 112.341C151.151 112.196 151.44 112.196 151.658 112.232C151.911 112.305 152.128 112.486 152.237 112.667C152.346 112.884 152.382 113.174 152.31 113.391C152.128 114.079 151.947 114.767 151.73 115.456C151.658 115.709 151.513 115.89 151.295 116.035C151.078 116.144 150.825 116.18 150.571 116.108ZM171.404 122.156C172.853 118.136 172.563 117.122 171.513 117.158C168.724 117.267 165.537 124.836 164.052 127.879C163.653 128.676 162.458 127.951 162.458 127.227C162.458 126.503 161.698 120.78 160.864 120.852C160.321 120.889 159.887 121.54 159.561 121.975C157.786 124.366 156.337 127.046 155.25 129.835C155.033 130.306 154.598 130.632 154.091 130.487C153.621 130.342 153.258 129.799 153.439 129.328C154.454 126.285 155.142 123.134 155.468 119.947C155.54 119.44 155.866 119.005 156.409 119.005C156.88 119.005 157.424 119.44 157.351 119.947C157.279 120.744 157.17 121.54 157.061 122.301C157.279 121.975 157.496 121.613 157.75 121.287C158.546 120.164 159.524 118.933 161.046 118.969C163.436 119.078 163.617 122.265 163.871 124.221C165.682 120.744 169.159 114.695 172.31 114.767C174.302 114.804 175.388 116.904 172.998 122.736C171.767 125.706 171.839 129.4 176.185 126.937C178.105 125.851 180.061 124.003 180.387 123.279C180.821 122.301 182.415 122.844 181.763 124.076C181.184 125.199 179.155 127.046 176.982 128.314C171.006 131.863 169.014 128.857 171.404 122.156ZM195.024 122.917C196.183 122.591 196.69 124.402 195.531 124.728C194.336 125.054 191.511 125.38 190.279 125.561C189.917 126.068 189.555 126.503 189.193 126.937C187.997 128.314 186.585 129.545 184.991 130.45C183.687 131.247 181.768 131.827 180.428 130.813C178.834 129.581 179.413 127.046 179.776 125.38C180.21 123.641 180.971 121.939 181.949 120.454C182.383 119.476 183.18 118.679 184.049 118.1C185.643 117.049 187.744 116.615 189.519 117.411C191.366 118.208 192.308 120.019 191.945 121.975C191.873 122.482 191.692 122.953 191.511 123.424C192.126 123.279 194.408 123.062 195.024 122.917ZM184.339 120.237C184.194 120.381 184.086 120.563 183.941 120.707C183.941 120.816 183.905 120.925 183.832 121.033C183.76 121.106 183.723 121.178 183.651 121.287C183.47 121.903 183.542 122.555 184.158 123.098C185.245 124.148 187.019 124.003 188.396 123.895C188.649 123.859 188.939 123.822 189.193 123.786C189.663 123.062 190.026 122.265 190.134 121.432C190.315 120.128 189.338 119.114 188.07 118.896C186.766 118.715 185.281 119.331 184.339 120.237ZM185.064 128.169C186.042 127.517 186.911 126.684 187.671 125.814C187.382 125.814 187.128 125.814 186.838 125.814C185.136 125.814 183.253 125.235 182.275 123.822C182.021 124.438 181.804 125.054 181.659 125.742C181.442 126.539 181.297 127.408 181.261 128.241C181.261 128.893 181.369 129.364 181.949 129.436C182.999 129.617 184.194 128.784 185.064 128.169ZM204.528 124.329C203.369 125.995 201.233 128.64 199.458 130.052C198.48 130.849 197.429 131.465 196.524 131.284C195.836 131.175 195.256 130.668 194.93 130.052C193.59 127.662 194.822 122.555 195.546 119.802C196.452 116.144 197.719 112.594 199.059 109.117C196.922 109.335 194.749 109.588 192.612 109.842C192.105 109.878 191.671 109.335 191.671 108.9C191.671 108.357 192.105 107.994 192.612 107.958L199.82 107.125C201.051 104.083 202.355 101.04 203.768 98.0702C203.985 97.5994 204.673 97.4907 205.072 97.7443C205.543 97.9978 205.615 98.5411 205.398 99.0119C204.166 101.62 203.007 104.228 201.957 106.908L211.41 105.857C211.917 105.785 212.352 106.328 212.352 106.799C212.352 107.342 211.917 107.668 211.41 107.741L201.16 108.864C201.015 109.298 200.834 109.769 200.653 110.204C199.385 113.536 198.19 116.904 197.321 120.381C196.886 122.084 196.56 123.786 196.379 125.525C195.836 129.4 197.067 129.436 198.588 128.241C200.255 126.937 201.812 124.981 203.08 123.134C203.369 122.736 204.021 122.736 204.384 123.025C204.818 123.351 204.818 123.931 204.528 124.329ZM217.59 122.917C218.749 122.591 219.257 124.402 218.098 124.728C216.902 125.054 214.077 125.38 212.846 125.561C212.484 126.068 212.121 126.503 211.759 126.937C210.564 128.314 209.151 129.545 207.558 130.45C206.254 131.247 204.334 131.827 202.994 130.813C201.4 129.581 201.98 127.046 202.342 125.38C202.777 123.641 203.537 121.939 204.515 120.454C204.95 119.476 205.747 118.679 206.616 118.1C208.21 117.049 210.31 116.615 212.085 117.411C213.932 118.208 214.874 120.019 214.512 121.975C214.439 122.482 214.258 122.953 214.077 123.424C214.693 123.279 216.975 123.062 217.59 122.917ZM206.906 120.237C206.761 120.381 206.652 120.563 206.507 120.707C206.507 120.816 206.471 120.925 206.399 121.033C206.326 121.106 206.29 121.178 206.218 121.287C206.036 121.903 206.109 122.555 206.725 123.098C207.811 124.148 209.586 124.003 210.962 123.895C211.216 123.859 211.506 123.822 211.759 123.786C212.23 123.062 212.592 122.265 212.701 121.432C212.882 120.128 211.904 119.114 210.636 118.896C209.332 118.715 207.847 119.331 206.906 120.237ZM207.63 128.169C208.608 127.517 209.477 126.684 210.238 125.814C209.948 125.814 209.695 125.814 209.405 125.814C207.703 125.814 205.819 125.235 204.841 123.822C204.588 124.438 204.37 125.054 204.225 125.742C204.008 126.539 203.863 127.408 203.827 128.241C203.827 128.893 203.936 129.364 204.515 129.436C205.566 129.617 206.761 128.784 207.63 128.169Z" fill="#070708"/>
<path d="M144.231 23.2074C143.794 11.968 136.636 4 127.23 4C117.288 4 114.735 9.49843 109.624 9.49843C104.519 9.49843 101.966 4 92.0179 4C82.6122 4 75.4593 11.968 75.0172 23.2074C74.4803 36.9807 86.6335 73.5 98.5919 73.5C106.787 73.5 104.471 62.0429 105.813 57.7075C106.176 56.5395 107.103 54.6242 109.624 54.6242C112.145 54.6242 113.072 56.5395 113.435 57.7075C114.777 62.0478 112.461 73.5 120.656 73.5C132.615 73.5 144.768 36.9807 144.231 23.2074Z" stroke="url(#paint0_linear_2081_53)" stroke-width="6.73939" stroke-miterlimit="10"/>
<defs>
<linearGradient id="paint0_linear_2081_53" x1="75" y1="38.75" x2="144.248" y2="38.75" gradientUnits="userSpaceOnUse">
<stop stop-color="#0BD894"/>
<stop offset="1" stop-color="#09AC96"/>
</linearGradient>
</defs>
</svg>
