<svg width="420" height="422" viewBox="0 0 420 422" fill="none" xmlns="http://www.w3.org/2000/svg">
<path d="M401.015 124.986C398.604 62.9675 359.105 19 307.205 19C252.342 19 238.256 49.3403 210.055 49.3403C181.883 49.3403 167.797 19 112.905 19C61.0042 19 21.5343 62.9675 19.0947 124.986C16.1323 200.987 83.1934 402.5 149.18 402.5C194.4 402.5 181.621 339.28 189.027 315.357C191.031 308.912 196.143 298.344 210.055 298.344C223.967 298.344 229.078 308.912 231.082 315.357C238.488 339.307 225.709 402.5 270.93 402.5C336.916 402.5 403.977 200.987 401.015 124.986Z" stroke="url(#paint0_linear_2024_1054)" stroke-opacity="0.06" stroke-width="37.1879" stroke-miterlimit="10"/>
<defs>
<linearGradient id="paint0_linear_2024_1054" x1="19" y1="210.75" x2="401.11" y2="210.75" gradientUnits="userSpaceOnUse">
<stop stop-color="#0BD894"/>
<stop offset="1" stop-color="#09AC96"/>
</linearGradient>
</defs>
</svg>
